<?xml version="1.0" encoding="UTF-8"?>
<svg xmlns="http://www.w3.org/2000/svg" xmlns:xlink="http://www.w3.org/1999/xlink" width="3840" height="2160" viewBox="0 0 3840 2160">
<defs>
<g>
<g id="glyph-0-0">
<path d="M 2.378906 0.0664062 C 2.273438 0.0664062 2.191406 0.0351562 2.132812 -0.0234375 C 2.074219 -0.0820312 2.042969 -0.140625 2.042969 -0.199219 C 2.042969 -0.332031 2.15625 -0.429688 2.378906 -0.488281 C 2.941406 -0.636719 3.402344 -0.773438 3.765625 -0.898438 C 4.128906 -1.027344 4.394531 -1.203125 4.566406 -1.433594 C 4.738281 -1.664062 4.824219 -1.992188 4.824219 -2.421875 L 4.824219 -10.910156 C 4.824219 -11.191406 4.734375 -11.40625 4.554688 -11.554688 C 4.378906 -11.703125 4.148438 -11.808594 3.867188 -11.867188 C 3.585938 -11.925781 3.28125 -11.964844 2.957031 -11.976562 C 2.808594 -11.992188 2.675781 -12.03125 2.554688 -12.089844 C 2.4375 -12.148438 2.378906 -12.238281 2.378906 -12.355469 C 2.378906 -12.460938 2.433594 -12.546875 2.542969 -12.621094 C 2.65625 -12.695312 2.785156 -12.742188 2.933594 -12.753906 C 3.601562 -12.859375 4.195312 -12.988281 4.722656 -13.144531 C 5.25 -13.300781 5.761719 -13.628906 6.265625 -14.132812 C 6.28125 -14.148438 6.300781 -14.15625 6.324219 -14.15625 C 6.34375 -14.15625 6.363281 -14.15625 6.378906 -14.15625 C 6.453125 -14.15625 6.519531 -14.136719 6.578125 -14.101562 C 6.636719 -14.0625 6.660156 -14.015625 6.644531 -13.957031 C 6.613281 -13.734375 6.59375 -13.492188 6.578125 -13.234375 C 6.5625 -12.972656 6.554688 -12.6875 6.554688 -12.378906 L 6.554688 -2.15625 C 6.554688 -1.785156 6.625 -1.503906 6.765625 -1.3125 C 6.90625 -1.117188 7.148438 -0.964844 7.488281 -0.855469 C 7.828125 -0.746094 8.304688 -0.613281 8.910156 -0.464844 C 9 -0.453125 9.085938 -0.417969 9.167969 -0.367188 C 9.25 -0.316406 9.289062 -0.25 9.289062 -0.179688 C 9.289062 -0.015625 9.183594 0.0664062 8.976562 0.0664062 C 8.5625 0.0664062 8.183594 0.0546875 7.832031 0.0351562 C 7.484375 0.0117188 7.144531 -0.0078125 6.8125 -0.0234375 C 6.476562 -0.0390625 6.109375 -0.0429688 5.710938 -0.0429688 C 5.3125 -0.0429688 4.933594 -0.0351562 4.578125 -0.0234375 C 4.222656 -0.0078125 3.867188 0.0117188 3.511719 0.0351562 C 3.15625 0.0546875 2.777344 0.0664062 2.378906 0.0664062 Z "/>
</g>
<g id="glyph-0-1">
<path d="M 3.578125 0.84375 C 3.238281 0.84375 2.875 0.789062 2.488281 0.679688 C 2.105469 0.566406 1.777344 0.4375 1.511719 0.289062 C 1.246094 0.140625 1.109375 0.0078125 1.109375 -0.109375 C 1.109375 -0.214844 1.171875 -0.347656 1.289062 -0.511719 C 1.40625 -0.675781 1.542969 -0.820312 1.699219 -0.945312 C 1.855469 -1.070312 1.984375 -1.132812 2.089844 -1.132812 C 2.253906 -1.132812 2.398438 -1.089844 2.535156 -1 C 2.667969 -0.910156 2.808594 -0.808594 2.957031 -0.6875 C 3.148438 -0.527344 3.371094 -0.371094 3.621094 -0.222656 C 3.875 -0.0742188 4.207031 0 4.621094 0 C 5.171875 0 5.6875 -0.140625 6.179688 -0.421875 C 6.667969 -0.703125 7.070312 -1.09375 7.390625 -1.589844 C 7.707031 -2.085938 7.867188 -2.636719 7.867188 -3.246094 C 7.867188 -3.824219 7.769531 -4.378906 7.578125 -4.910156 C 7.386719 -5.445312 7.101562 -5.886719 6.722656 -6.234375 C 6.34375 -6.582031 5.867188 -6.753906 5.289062 -6.753906 C 5.125 -6.753906 4.90625 -6.738281 4.632812 -6.699219 C 4.359375 -6.664062 4.097656 -6.570312 3.84375 -6.421875 C 3.769531 -6.378906 3.683594 -6.382812 3.589844 -6.433594 C 3.492188 -6.484375 3.453125 -6.546875 3.464844 -6.621094 C 3.523438 -6.816406 3.613281 -6.972656 3.734375 -7.101562 C 3.851562 -7.226562 3.984375 -7.320312 4.132812 -7.378906 C 4.265625 -7.4375 4.480469 -7.550781 4.777344 -7.722656 C 5.074219 -7.894531 5.390625 -8.109375 5.722656 -8.367188 C 6.054688 -8.625 6.339844 -8.921875 6.578125 -9.253906 C 6.816406 -9.589844 6.933594 -9.957031 6.933594 -10.355469 C 6.933594 -10.964844 6.738281 -11.5 6.34375 -11.96875 C 5.953125 -12.433594 5.453125 -12.667969 4.84375 -12.667969 C 4.265625 -12.667969 3.804688 -12.566406 3.457031 -12.367188 C 3.109375 -12.167969 2.828125 -11.9375 2.621094 -11.679688 C 2.414062 -11.417969 2.257812 -11.1875 2.15625 -10.988281 C 2.050781 -10.789062 1.957031 -10.6875 1.867188 -10.6875 C 1.808594 -10.6875 1.734375 -10.734375 1.644531 -10.824219 C 1.554688 -10.910156 1.511719 -11.007812 1.511719 -11.109375 C 1.511719 -11.304688 1.59375 -11.558594 1.753906 -11.878906 C 1.917969 -12.195312 2.175781 -12.519531 2.523438 -12.84375 C 2.871094 -13.171875 3.316406 -13.445312 3.855469 -13.667969 C 4.394531 -13.890625 5.042969 -14 5.800781 -14 C 6.289062 -14 6.753906 -13.894531 7.1875 -13.679688 C 7.625 -13.464844 7.984375 -13.167969 8.265625 -12.789062 C 8.546875 -12.410156 8.6875 -11.96875 8.6875 -11.46875 C 8.6875 -11.113281 8.613281 -10.742188 8.46875 -10.355469 C 8.320312 -9.96875 8.074219 -9.589844 7.734375 -9.210938 C 7.394531 -8.832031 6.933594 -8.472656 6.355469 -8.132812 C 6.3125 -8.117188 6.289062 -8.09375 6.289062 -8.054688 C 6.289062 -8.019531 6.320312 -8 6.378906 -8 C 7.015625 -8 7.585938 -7.839844 8.089844 -7.523438 C 8.59375 -7.203125 8.996094 -6.78125 9.300781 -6.253906 C 9.605469 -5.730469 9.753906 -5.148438 9.753906 -4.511719 C 9.753906 -3.683594 9.578125 -2.9375 9.222656 -2.277344 C 8.867188 -1.617188 8.394531 -1.054688 7.800781 -0.589844 C 7.207031 -0.121094 6.542969 0.234375 5.8125 0.476562 C 5.078125 0.722656 4.332031 0.84375 3.578125 0.84375 Z "/>
</g>
<g id="glyph-0-2">
<path d="M 2.421875 0.84375 C 2.257812 0.84375 2.082031 0.824219 1.890625 0.789062 C 1.695312 0.75 1.601562 0.679688 1.601562 0.578125 C 1.601562 0.460938 1.699219 0.359375 1.898438 0.277344 C 2.097656 0.195312 2.265625 0.15625 2.398438 0.15625 C 3.570312 0.15625 4.539062 -0.0546875 5.300781 -0.476562 C 6.0625 -0.898438 6.632812 -1.429688 7.011719 -2.066406 C 7.390625 -2.703125 7.578125 -3.339844 7.578125 -3.976562 C 7.578125 -4.554688 7.40625 -5.066406 7.066406 -5.511719 C 6.726562 -5.957031 6.167969 -6.363281 5.390625 -6.734375 C 4.613281 -7.105469 3.5625 -7.460938 2.246094 -7.800781 C 2.050781 -7.964844 1.914062 -8.125 1.832031 -8.289062 C 1.75 -8.453125 1.710938 -8.628906 1.710938 -8.824219 C 1.710938 -9.03125 1.75 -9.28125 1.832031 -9.578125 C 1.914062 -9.875 2.015625 -10.1875 2.132812 -10.523438 C 2.25 -10.855469 2.371094 -11.183594 2.488281 -11.511719 C 2.605469 -11.835938 2.703125 -12.117188 2.777344 -12.355469 C 2.851562 -12.578125 2.964844 -12.753906 3.109375 -12.878906 C 3.257812 -13.003906 3.453125 -13.097656 3.6875 -13.15625 C 4.027344 -13.246094 4.378906 -13.328125 4.734375 -13.398438 C 5.089844 -13.472656 5.460938 -13.542969 5.84375 -13.613281 C 6.230469 -13.679688 6.625 -13.738281 7.035156 -13.789062 C 7.441406 -13.839844 7.859375 -13.890625 8.289062 -13.933594 C 8.40625 -13.949219 8.492188 -13.914062 8.542969 -13.832031 C 8.597656 -13.75 8.59375 -13.660156 8.535156 -13.554688 C 8.476562 -13.4375 8.410156 -13.316406 8.34375 -13.1875 C 8.277344 -13.0625 8.214844 -12.941406 8.15625 -12.824219 C 8.050781 -12.601562 7.9375 -12.433594 7.8125 -12.324219 C 7.6875 -12.210938 7.527344 -12.140625 7.332031 -12.113281 C 7.050781 -12.082031 6.726562 -12.046875 6.355469 -12.011719 C 5.984375 -11.972656 5.613281 -11.9375 5.246094 -11.898438 C 4.875 -11.863281 4.535156 -11.828125 4.222656 -11.800781 C 3.910156 -11.769531 3.675781 -11.742188 3.511719 -11.710938 C 3.40625 -11.695312 3.28125 -11.566406 3.132812 -11.324219 C 2.984375 -11.078125 2.851562 -10.820312 2.734375 -10.542969 C 2.613281 -10.269531 2.546875 -10.074219 2.535156 -9.957031 C 2.519531 -9.851562 2.53125 -9.761719 2.566406 -9.6875 C 2.605469 -9.613281 2.6875 -9.5625 2.824219 -9.535156 C 3.652344 -9.296875 4.40625 -9.054688 5.089844 -8.8125 C 5.769531 -8.566406 6.363281 -8.3125 6.867188 -8.042969 C 7.695312 -7.613281 8.316406 -7.109375 8.722656 -6.523438 C 9.128906 -5.9375 9.332031 -5.191406 9.332031 -4.289062 C 9.332031 -3.472656 9.089844 -2.710938 8.601562 -2 C 8.113281 -1.289062 7.453125 -0.695312 6.621094 -0.222656 C 6.222656 0 5.800781 0.1875 5.355469 0.34375 C 4.910156 0.5 4.445312 0.621094 3.957031 0.710938 C 3.46875 0.800781 2.957031 0.84375 2.421875 0.84375 Z "/>
</g>
</g>
</defs>
<g fill="rgb(23.921569%, 22.352941%, 16.078431%)" fill-opacity="1">
<use xlink:href="#glyph-0-0" x="30" y="42.37793"/>
<use xlink:href="#glyph-0-1" x="41" y="42.37793"/>
<use xlink:href="#glyph-0-2" x="52" y="42.37793"/>
</g>
</svg>
