<?xml version="1.0" encoding="UTF-8"?>
<svg xmlns="http://www.w3.org/2000/svg" xmlns:xlink="http://www.w3.org/1999/xlink" width="1920" height="1080" viewBox="0 0 1920 1080">
<defs>
<g>
<g id="glyph-0-0">
<path d="M 0.558594 0.0585938 C 0.457031 0.0585938 0.378906 0.046875 0.316406 0.0273438 C 0.253906 0.0078125 0.222656 -0.0234375 0.222656 -0.0703125 C 0.222656 -0.164062 0.351562 -0.234375 0.605469 -0.28125 C 0.902344 -0.335938 1.128906 -0.425781 1.285156 -0.546875 C 1.441406 -0.671875 1.515625 -0.875 1.515625 -1.15625 L 1.515625 -6.40625 C 1.515625 -6.683594 1.457031 -6.890625 1.339844 -7.023438 C 1.222656 -7.15625 1.023438 -7.234375 0.734375 -7.257812 C 0.601562 -7.273438 0.503906 -7.300781 0.441406 -7.34375 C 0.378906 -7.386719 0.351562 -7.4375 0.351562 -7.488281 C 0.351562 -7.535156 0.382812 -7.570312 0.441406 -7.589844 C 0.503906 -7.609375 0.585938 -7.617188 0.6875 -7.617188 C 0.898438 -7.617188 1.0625 -7.617188 1.179688 -7.617188 C 1.296875 -7.617188 1.40625 -7.617188 1.511719 -7.613281 C 1.617188 -7.609375 1.746094 -7.605469 1.902344 -7.605469 C 2.050781 -7.605469 2.179688 -7.613281 2.285156 -7.625 C 2.394531 -7.636719 2.519531 -7.644531 2.652344 -7.652344 C 2.789062 -7.660156 2.972656 -7.664062 3.195312 -7.664062 C 4.105469 -7.664062 4.785156 -7.535156 5.234375 -7.273438 C 5.679688 -7.011719 5.902344 -6.566406 5.902344 -5.925781 C 5.902344 -5.660156 5.859375 -5.429688 5.769531 -5.234375 C 5.679688 -5.035156 5.59375 -4.890625 5.507812 -4.808594 C 5.382812 -4.683594 5.269531 -4.585938 5.167969 -4.519531 C 5.066406 -4.453125 4.917969 -4.382812 4.726562 -4.304688 C 4.695312 -4.296875 4.679688 -4.28125 4.679688 -4.253906 C 4.679688 -4.226562 4.695312 -4.203125 4.726562 -4.1875 C 4.90625 -4.132812 5.089844 -4.0625 5.28125 -3.976562 C 5.46875 -3.890625 5.648438 -3.78125 5.816406 -3.644531 C 5.984375 -3.507812 6.121094 -3.332031 6.222656 -3.109375 C 6.328125 -2.886719 6.382812 -2.605469 6.382812 -2.261719 C 6.382812 -1.835938 6.3125 -1.496094 6.175781 -1.25 C 6.039062 -1 5.878906 -0.808594 5.695312 -0.675781 C 5.507812 -0.542969 5.332031 -0.4375 5.167969 -0.351562 C 4.925781 -0.226562 4.648438 -0.128906 4.328125 -0.0585938 C 4.007812 0.0117188 3.628906 0.046875 3.183594 0.046875 C 3.082031 0.046875 2.933594 0.0390625 2.730469 0.0234375 C 2.527344 0.0078125 2.308594 0 2.078125 0 C 1.875 0 1.703125 0.00390625 1.5625 0.0117188 C 1.421875 0.0195312 1.277344 0.0273438 1.125 0.0390625 C 0.972656 0.0507812 0.785156 0.0585938 0.558594 0.0585938 Z M 3.347656 -0.433594 C 3.691406 -0.433594 4.007812 -0.507812 4.304688 -0.664062 C 4.601562 -0.820312 4.839844 -1.03125 5.015625 -1.300781 C 5.195312 -1.570312 5.285156 -1.871094 5.285156 -2.203125 C 5.285156 -2.507812 5.234375 -2.757812 5.132812 -2.957031 C 5.03125 -3.15625 4.914062 -3.316406 4.785156 -3.441406 C 4.652344 -3.566406 4.53125 -3.65625 4.421875 -3.710938 C 4.320312 -3.773438 4.160156 -3.835938 3.945312 -3.902344 C 3.726562 -3.96875 3.441406 -4 3.089844 -4 C 2.84375 -4 2.667969 -3.953125 2.574219 -3.851562 C 2.476562 -3.75 2.425781 -3.660156 2.425781 -3.582031 L 2.425781 -1.261719 C 2.425781 -0.933594 2.507812 -0.714844 2.664062 -0.601562 C 2.824219 -0.488281 3.054688 -0.433594 3.347656 -0.433594 Z M 2.964844 -4.328125 C 3.175781 -4.328125 3.402344 -4.351562 3.644531 -4.398438 C 3.890625 -4.445312 4.132812 -4.535156 4.375 -4.667969 C 4.460938 -4.714844 4.570312 -4.828125 4.703125 -5.003906 C 4.835938 -5.183594 4.898438 -5.441406 4.898438 -5.773438 C 4.898438 -6 4.855469 -6.230469 4.773438 -6.46875 C 4.6875 -6.707031 4.523438 -6.90625 4.28125 -7.070312 C 4.039062 -7.234375 3.679688 -7.316406 3.195312 -7.316406 C 2.878906 -7.316406 2.667969 -7.273438 2.574219 -7.1875 C 2.476562 -7.101562 2.425781 -6.96875 2.425781 -6.789062 L 2.425781 -4.761719 C 2.425781 -4.558594 2.492188 -4.433594 2.625 -4.394531 C 2.757812 -4.351562 2.871094 -4.328125 2.964844 -4.328125 Z "/>
</g>
<g id="glyph-0-1">
<path d="M 2.484375 0.175781 C 2.058594 0.175781 1.683594 0.0703125 1.363281 -0.140625 C 1.046875 -0.351562 0.796875 -0.648438 0.617188 -1.03125 C 0.4375 -1.417969 0.351562 -1.863281 0.351562 -2.367188 C 0.351562 -2.820312 0.453125 -3.230469 0.660156 -3.597656 C 0.867188 -3.96875 1.140625 -4.265625 1.480469 -4.492188 C 1.824219 -4.71875 2.199219 -4.832031 2.601562 -4.832031 C 2.914062 -4.832031 3.1875 -4.769531 3.429688 -4.644531 C 3.671875 -4.519531 3.859375 -4.347656 3.996094 -4.125 C 4.132812 -3.902344 4.199219 -3.648438 4.199219 -3.359375 C 4.199219 -3.117188 4.082031 -3 3.851562 -3 L 1.386719 -3 C 1.277344 -3 1.203125 -2.96875 1.160156 -2.910156 C 1.117188 -2.851562 1.097656 -2.738281 1.097656 -2.566406 C 1.097656 -2.191406 1.179688 -1.851562 1.339844 -1.546875 C 1.503906 -1.238281 1.722656 -0.992188 1.996094 -0.8125 C 2.269531 -0.628906 2.566406 -0.535156 2.894531 -0.535156 C 3.128906 -0.535156 3.339844 -0.582031 3.527344 -0.671875 C 3.71875 -0.761719 3.890625 -0.890625 4.035156 -1.0625 C 4.066406 -1.101562 4.089844 -1.125 4.105469 -1.136719 C 4.121094 -1.148438 4.140625 -1.15625 4.164062 -1.15625 C 4.226562 -1.15625 4.257812 -1.117188 4.257812 -1.039062 C 4.257812 -0.890625 4.1875 -0.726562 4.046875 -0.546875 C 3.929688 -0.398438 3.792969 -0.273438 3.628906 -0.164062 C 3.464844 -0.0546875 3.285156 0.0273438 3.089844 0.0859375 C 2.898438 0.144531 2.695312 0.175781 2.484375 0.175781 Z M 1.410156 -3.359375 L 2.472656 -3.359375 C 2.660156 -3.359375 2.820312 -3.363281 2.953125 -3.371094 C 3.085938 -3.378906 3.210938 -3.394531 3.335938 -3.417969 C 3.375 -3.425781 3.402344 -3.453125 3.414062 -3.496094 C 3.425781 -3.539062 3.429688 -3.597656 3.429688 -3.675781 C 3.429688 -3.902344 3.332031 -4.09375 3.132812 -4.253906 C 2.933594 -4.414062 2.699219 -4.492188 2.425781 -4.492188 C 2.246094 -4.492188 2.070312 -4.4375 1.890625 -4.335938 C 1.710938 -4.230469 1.5625 -4.097656 1.445312 -3.945312 C 1.328125 -3.789062 1.273438 -3.632812 1.273438 -3.476562 C 1.273438 -3.398438 1.320312 -3.359375 1.410156 -3.359375 Z "/>
</g>
<g id="glyph-0-2">
<path d="M 0.511719 0.0351562 C 0.441406 0.0351562 0.386719 0.0234375 0.34375 0.00390625 C 0.300781 -0.015625 0.28125 -0.046875 0.28125 -0.09375 C 0.28125 -0.15625 0.304688 -0.195312 0.351562 -0.214844 C 0.398438 -0.234375 0.460938 -0.257812 0.546875 -0.28125 C 0.664062 -0.3125 0.777344 -0.355469 0.886719 -0.410156 C 0.996094 -0.464844 1.050781 -0.566406 1.050781 -0.722656 L 1.050781 -3.230469 C 1.050781 -3.441406 1.027344 -3.621094 0.984375 -3.769531 C 0.941406 -3.917969 0.820312 -4.015625 0.617188 -4.070312 C 0.585938 -4.085938 0.558594 -4.105469 0.535156 -4.125 C 0.511719 -4.144531 0.5 -4.175781 0.5 -4.222656 C 0.5 -4.308594 0.535156 -4.355469 0.605469 -4.363281 C 0.878906 -4.433594 1.101562 -4.519531 1.273438 -4.621094 C 1.445312 -4.722656 1.609375 -4.835938 1.773438 -4.957031 C 1.796875 -4.972656 1.816406 -4.988281 1.835938 -5 C 1.855469 -5.011719 1.878906 -5.015625 1.902344 -5.015625 C 1.917969 -5.015625 1.929688 -5.007812 1.941406 -4.992188 C 1.953125 -4.976562 1.960938 -4.957031 1.960938 -4.933594 C 1.960938 -4.878906 1.949219 -4.769531 1.929688 -4.601562 C 1.910156 -4.433594 1.902344 -4.296875 1.902344 -4.1875 C 1.902344 -4.15625 1.902344 -4.128906 1.90625 -4.101562 C 1.910156 -4.074219 1.917969 -4.054688 1.925781 -4.046875 C 2.199219 -4.304688 2.488281 -4.5 2.792969 -4.632812 C 3.101562 -4.765625 3.4375 -4.832031 3.804688 -4.832031 C 4.183594 -4.832031 4.5 -4.675781 4.75 -4.363281 C 4.996094 -4.050781 5.121094 -3.667969 5.121094 -3.207031 L 5.121094 -0.722656 C 5.121094 -0.566406 5.175781 -0.464844 5.285156 -0.414062 C 5.394531 -0.363281 5.507812 -0.320312 5.625 -0.28125 C 5.6875 -0.257812 5.746094 -0.230469 5.804688 -0.203125 C 5.863281 -0.175781 5.890625 -0.132812 5.890625 -0.0703125 C 5.890625 -0.0234375 5.863281 0.00390625 5.808594 0.015625 C 5.753906 0.0273438 5.707031 0.0351562 5.660156 0.0351562 C 5.503906 0.0351562 5.382812 0.0273438 5.296875 0.015625 C 5.210938 0.00390625 5.128906 -0.00390625 5.050781 -0.0117188 C 4.972656 -0.0195312 4.863281 -0.0234375 4.726562 -0.0234375 C 4.59375 -0.0234375 4.484375 -0.0195312 4.398438 -0.0117188 C 4.3125 -0.00390625 4.226562 0.00390625 4.136719 0.015625 C 4.046875 0.0273438 3.925781 0.0351562 3.769531 0.0351562 C 3.730469 0.0351562 3.679688 0.0273438 3.621094 0.015625 C 3.5625 0.00390625 3.535156 -0.0234375 3.535156 -0.0703125 C 3.535156 -0.132812 3.5625 -0.175781 3.621094 -0.203125 C 3.679688 -0.230469 3.742188 -0.257812 3.804688 -0.28125 C 3.921875 -0.320312 4.03125 -0.363281 4.140625 -0.414062 C 4.25 -0.464844 4.304688 -0.566406 4.304688 -0.722656 L 4.304688 -3.171875 C 4.304688 -3.515625 4.210938 -3.78125 4.019531 -3.972656 C 3.828125 -4.164062 3.574219 -4.261719 3.253906 -4.269531 C 2.976562 -4.269531 2.730469 -4.226562 2.519531 -4.136719 C 2.308594 -4.046875 2.125 -3.9375 1.960938 -3.804688 C 1.929688 -3.773438 1.90625 -3.730469 1.890625 -3.679688 C 1.875 -3.628906 1.867188 -3.582031 1.867188 -3.535156 L 1.867188 -0.722656 C 1.867188 -0.566406 1.921875 -0.460938 2.03125 -0.410156 C 2.140625 -0.355469 2.25 -0.3125 2.367188 -0.28125 C 2.546875 -0.234375 2.636719 -0.171875 2.636719 -0.09375 C 2.636719 -0.046875 2.617188 -0.0117188 2.578125 0.00390625 C 2.539062 0.0234375 2.480469 0.0351562 2.402344 0.0351562 C 2.246094 0.0351562 2.125 0.0273438 2.035156 0.015625 C 1.945312 0.00390625 1.863281 -0.00390625 1.785156 -0.0117188 C 1.707031 -0.0195312 1.597656 -0.0234375 1.457031 -0.0234375 C 1.324219 -0.0234375 1.21875 -0.0195312 1.136719 -0.0117188 C 1.054688 -0.00390625 0.96875 0.00390625 0.878906 0.015625 C 0.789062 0.0273438 0.667969 0.0351562 0.511719 0.0351562 Z "/>
</g>
<g id="glyph-0-3">
<path d="M 0.511719 0.0351562 C 0.472656 0.0351562 0.425781 0.0273438 0.367188 0.015625 C 0.308594 0.00390625 0.28125 -0.0234375 0.28125 -0.0703125 C 0.28125 -0.132812 0.308594 -0.175781 0.367188 -0.203125 C 0.425781 -0.230469 0.484375 -0.257812 0.546875 -0.28125 C 0.664062 -0.320312 0.777344 -0.371094 0.886719 -0.4375 C 0.996094 -0.503906 1.050781 -0.621094 1.050781 -0.792969 L 1.050781 -4.082031 C 0.972656 -4.082031 0.882812 -4.082031 0.78125 -4.082031 C 0.679688 -4.082031 0.566406 -4.089844 0.441406 -4.105469 C 0.410156 -4.113281 0.382812 -4.136719 0.355469 -4.175781 C 0.328125 -4.214844 0.316406 -4.261719 0.316406 -4.316406 C 0.316406 -4.371094 0.359375 -4.410156 0.441406 -4.433594 C 0.582031 -4.472656 0.695312 -4.511719 0.777344 -4.554688 C 0.859375 -4.597656 0.949219 -4.644531 1.050781 -4.691406 C 1.050781 -5.390625 1.148438 -5.96875 1.339844 -6.429688 C 1.535156 -6.886719 1.78125 -7.25 2.082031 -7.511719 C 2.382812 -7.777344 2.691406 -7.964844 3.011719 -8.074219 C 3.328125 -8.183594 3.617188 -8.238281 3.875 -8.238281 C 4.105469 -8.238281 4.339844 -8.214844 4.574219 -8.167969 C 4.808594 -8.121094 5 -8.042969 5.15625 -7.933594 C 5.3125 -7.824219 5.390625 -7.671875 5.390625 -7.480469 C 5.390625 -7.261719 5.328125 -7.105469 5.210938 -7.011719 C 5.089844 -6.917969 4.953125 -6.871094 4.808594 -6.871094 C 4.707031 -6.871094 4.625 -6.910156 4.5625 -6.984375 C 4.5 -7.058594 4.429688 -7.140625 4.351562 -7.234375 C 4.257812 -7.359375 4.136719 -7.480469 3.988281 -7.59375 C 3.839844 -7.710938 3.632812 -7.769531 3.359375 -7.769531 C 3.109375 -7.769531 2.871094 -7.695312 2.640625 -7.542969 C 2.414062 -7.390625 2.226562 -7.152344 2.082031 -6.824219 C 1.9375 -6.5 1.867188 -6.070312 1.867188 -5.542969 L 1.867188 -4.898438 C 1.867188 -4.804688 1.894531 -4.75 1.953125 -4.726562 C 2.011719 -4.703125 2.082031 -4.683594 2.160156 -4.667969 C 2.375 -4.644531 2.605469 -4.625 2.839844 -4.609375 C 3.078125 -4.59375 3.304688 -4.585938 3.523438 -4.585938 C 3.734375 -4.585938 3.917969 -4.59375 4.070312 -4.609375 C 4.226562 -4.625 4.332031 -4.644531 4.386719 -4.667969 C 4.496094 -4.730469 4.601562 -4.792969 4.703125 -4.859375 C 4.804688 -4.925781 4.902344 -4.988281 5.003906 -5.050781 C 5.035156 -5.066406 5.066406 -5.070312 5.097656 -5.0625 C 5.128906 -5.054688 5.144531 -5.035156 5.144531 -5.003906 C 5.136719 -4.871094 5.121094 -4.667969 5.09375 -4.386719 C 5.066406 -4.105469 5.050781 -3.714844 5.050781 -3.207031 L 5.050781 -0.792969 C 5.050781 -0.621094 5.105469 -0.503906 5.214844 -0.4375 C 5.324219 -0.371094 5.4375 -0.320312 5.554688 -0.28125 C 5.617188 -0.257812 5.675781 -0.230469 5.734375 -0.203125 C 5.792969 -0.175781 5.820312 -0.132812 5.820312 -0.0703125 C 5.820312 -0.0234375 5.792969 0.00390625 5.734375 0.015625 C 5.675781 0.0273438 5.628906 0.0351562 5.589844 0.0351562 C 5.433594 0.0351562 5.308594 0.0273438 5.222656 0.015625 C 5.132812 0.00390625 5.046875 -0.00390625 4.96875 -0.0117188 C 4.890625 -0.0195312 4.785156 -0.0234375 4.644531 -0.0234375 C 4.511719 -0.0234375 4.402344 -0.0195312 4.324219 -0.0117188 C 4.242188 -0.00390625 4.15625 0.00390625 4.066406 0.015625 C 3.976562 0.0273438 3.855469 0.0351562 3.699219 0.0351562 C 3.660156 0.0351562 3.609375 0.0273438 3.550781 0.015625 C 3.492188 0.00390625 3.464844 -0.0234375 3.464844 -0.0703125 C 3.464844 -0.132812 3.496094 -0.175781 3.550781 -0.203125 C 3.609375 -0.230469 3.671875 -0.257812 3.734375 -0.28125 C 3.851562 -0.320312 3.960938 -0.371094 4.070312 -0.4375 C 4.179688 -0.503906 4.234375 -0.621094 4.234375 -0.792969 L 4.234375 -3.253906 C 4.234375 -3.472656 4.191406 -3.660156 4.105469 -3.816406 C 4.019531 -3.972656 3.878906 -4.066406 3.675781 -4.105469 C 3.660156 -4.113281 3.589844 -4.117188 3.472656 -4.117188 C 3.351562 -4.117188 3.207031 -4.117188 3.046875 -4.117188 C 2.929688 -4.117188 2.808594 -4.117188 2.683594 -4.117188 C 2.558594 -4.117188 2.441406 -4.113281 2.332031 -4.105469 C 2.105469 -4.097656 1.972656 -4.074219 1.929688 -4.035156 C 1.886719 -3.996094 1.867188 -3.945312 1.867188 -3.875 L 1.867188 -0.792969 C 1.867188 -0.621094 1.921875 -0.503906 2.03125 -0.4375 C 2.140625 -0.371094 2.25 -0.320312 2.367188 -0.28125 C 2.429688 -0.257812 2.492188 -0.230469 2.550781 -0.203125 C 2.609375 -0.175781 2.636719 -0.132812 2.636719 -0.0703125 C 2.636719 -0.0234375 2.609375 0.00390625 2.550781 0.015625 C 2.492188 0.0273438 2.441406 0.0351562 2.402344 0.0351562 C 2.246094 0.0351562 2.125 0.0273438 2.035156 0.015625 C 1.945312 0.00390625 1.863281 -0.00390625 1.785156 -0.0117188 C 1.707031 -0.0195312 1.597656 -0.0234375 1.457031 -0.0234375 C 1.324219 -0.0234375 1.21875 -0.0195312 1.136719 -0.0117188 C 1.054688 -0.00390625 0.96875 0.00390625 0.878906 0.015625 C 0.789062 0.0273438 0.667969 0.0351562 0.511719 0.0351562 Z "/>
</g>
<g id="glyph-0-4">
<path d="M 2.203125 0.164062 C 1.824219 0.164062 1.527344 0.046875 1.3125 -0.1875 C 1.097656 -0.421875 0.992188 -0.765625 0.992188 -1.226562 L 0.992188 -3.933594 C 0.992188 -3.996094 0.96875 -4.039062 0.921875 -4.066406 C 0.875 -4.09375 0.773438 -4.105469 0.617188 -4.105469 L 0.546875 -4.105469 C 0.507812 -4.105469 0.476562 -4.132812 0.449219 -4.183594 C 0.421875 -4.234375 0.410156 -4.285156 0.410156 -4.339844 C 0.410156 -4.355469 0.421875 -4.378906 0.441406 -4.410156 C 0.464844 -4.441406 0.480469 -4.460938 0.488281 -4.46875 C 0.644531 -4.578125 0.789062 -4.6875 0.914062 -4.796875 C 1.042969 -4.90625 1.160156 -5.011719 1.265625 -5.117188 C 1.371094 -5.222656 1.457031 -5.316406 1.527344 -5.402344 C 1.566406 -5.441406 1.601562 -5.472656 1.628906 -5.5 C 1.65625 -5.527344 1.6875 -5.542969 1.726562 -5.542969 C 1.765625 -5.542969 1.800781 -5.535156 1.835938 -5.519531 C 1.871094 -5.503906 1.886719 -5.46875 1.878906 -5.414062 L 1.820312 -4.886719 C 1.8125 -4.800781 1.832031 -4.746094 1.878906 -4.714844 C 1.925781 -4.683594 2 -4.667969 2.101562 -4.667969 L 3.429688 -4.667969 C 3.460938 -4.667969 3.488281 -4.640625 3.511719 -4.589844 C 3.535156 -4.539062 3.546875 -4.480469 3.546875 -4.410156 C 3.546875 -4.339844 3.535156 -4.273438 3.511719 -4.207031 C 3.488281 -4.140625 3.460938 -4.105469 3.429688 -4.105469 L 2.273438 -4.105469 C 2.078125 -4.105469 1.953125 -4.089844 1.894531 -4.058594 C 1.835938 -4.027344 1.808594 -3.9375 1.808594 -3.78125 L 1.808594 -1.480469 C 1.808594 -1.171875 1.875 -0.925781 2.007812 -0.746094 C 2.140625 -0.566406 2.328125 -0.476562 2.578125 -0.476562 C 2.804688 -0.476562 2.980469 -0.496094 3.101562 -0.53125 C 3.226562 -0.566406 3.339844 -0.617188 3.441406 -0.6875 C 3.457031 -0.703125 3.472656 -0.710938 3.488281 -0.710938 C 3.519531 -0.710938 3.539062 -0.695312 3.550781 -0.660156 C 3.5625 -0.625 3.570312 -0.585938 3.570312 -0.546875 C 3.570312 -0.507812 3.507812 -0.433594 3.378906 -0.316406 C 3.25 -0.199219 3.082031 -0.0898438 2.875 0.0117188 C 2.667969 0.113281 2.445312 0.164062 2.203125 0.164062 Z "/>
</g>
<g id="glyph-0-5">
<path d="M 1.679688 0.164062 C 1.4375 0.164062 1.214844 0.125 1.003906 0.0507812 C 0.792969 -0.0234375 0.613281 -0.125 0.464844 -0.257812 C 0.425781 -0.34375 0.398438 -0.484375 0.378906 -0.6875 C 0.359375 -0.890625 0.347656 -1.058594 0.339844 -1.191406 C 0.339844 -1.261719 0.390625 -1.296875 0.488281 -1.296875 C 0.519531 -1.296875 0.550781 -1.289062 0.578125 -1.277344 C 0.605469 -1.265625 0.621094 -1.246094 0.628906 -1.214844 C 0.730469 -0.832031 0.890625 -0.558594 1.113281 -0.398438 C 1.335938 -0.234375 1.558594 -0.152344 1.785156 -0.152344 C 2.011719 -0.152344 2.203125 -0.226562 2.363281 -0.378906 C 2.523438 -0.53125 2.601562 -0.71875 2.601562 -0.945312 C 2.601562 -1.15625 2.53125 -1.335938 2.390625 -1.488281 C 2.25 -1.640625 2.007812 -1.824219 1.65625 -2.042969 C 1.390625 -2.207031 1.179688 -2.359375 1.015625 -2.507812 C 0.851562 -2.65625 0.734375 -2.808594 0.660156 -2.964844 C 0.585938 -3.121094 0.546875 -3.292969 0.546875 -3.488281 C 0.546875 -3.738281 0.605469 -3.960938 0.722656 -4.164062 C 0.839844 -4.367188 1.015625 -4.527344 1.25 -4.648438 C 1.480469 -4.769531 1.773438 -4.832031 2.125 -4.832031 C 2.355469 -4.832031 2.550781 -4.808594 2.707031 -4.761719 C 2.863281 -4.714844 2.980469 -4.664062 3.058594 -4.609375 C 3.121094 -4.523438 3.171875 -4.390625 3.214844 -4.207031 C 3.257812 -4.023438 3.277344 -3.851562 3.277344 -3.6875 C 3.277344 -3.632812 3.238281 -3.605469 3.160156 -3.605469 C 3.113281 -3.605469 3.070312 -3.613281 3.027344 -3.632812 C 2.984375 -3.652344 2.957031 -3.679688 2.941406 -3.710938 C 2.839844 -3.96875 2.710938 -4.164062 2.5625 -4.300781 C 2.410156 -4.4375 2.21875 -4.503906 1.996094 -4.503906 C 1.800781 -4.503906 1.628906 -4.445312 1.476562 -4.328125 C 1.324219 -4.210938 1.25 -4.039062 1.25 -3.816406 C 1.25 -3.636719 1.304688 -3.476562 1.417969 -3.335938 C 1.53125 -3.195312 1.742188 -3.039062 2.054688 -2.859375 C 2.503906 -2.601562 2.839844 -2.363281 3.0625 -2.140625 C 3.285156 -1.917969 3.394531 -1.625 3.394531 -1.261719 C 3.394531 -0.839844 3.234375 -0.496094 2.917969 -0.234375 C 2.597656 0.03125 2.1875 0.164062 1.679688 0.164062 Z "/>
</g>
<g id="glyph-0-6">
<path d="M 0.441406 1.714844 C 0.300781 1.714844 0.234375 1.671875 0.234375 1.585938 C 0.234375 1.554688 0.246094 1.527344 0.273438 1.5 C 0.300781 1.472656 0.34375 1.453125 0.398438 1.445312 C 0.570312 1.40625 0.738281 1.339844 0.910156 1.25 C 1.082031 1.15625 1.226562 1.019531 1.339844 0.847656 C 1.457031 0.671875 1.515625 0.445312 1.515625 0.175781 C 1.515625 0.0820312 1.472656 -0.0234375 1.386719 -0.144531 C 1.300781 -0.265625 1.195312 -0.332031 1.0625 -0.339844 C 0.890625 -0.355469 0.757812 -0.410156 0.660156 -0.5 C 0.5625 -0.59375 0.511719 -0.703125 0.511719 -0.828125 C 0.511719 -0.984375 0.578125 -1.113281 0.707031 -1.214844 C 0.835938 -1.316406 0.984375 -1.363281 1.15625 -1.363281 C 1.433594 -1.363281 1.667969 -1.257812 1.847656 -1.042969 C 2.03125 -0.828125 2.125 -0.558594 2.125 -0.234375 C 2.125 0.0625 2.066406 0.328125 1.949219 0.566406 C 1.832031 0.804688 1.683594 1.007812 1.503906 1.179688 C 1.324219 1.351562 1.140625 1.480469 0.949219 1.574219 C 0.757812 1.667969 0.589844 1.714844 0.441406 1.714844 Z "/>
</g>
<g id="glyph-0-7">
<rect x="0" y="0" width="0" height="0" mask="url(#mask-0)"/>
</g>
<g id="glyph-0-8">
<path d="M 2.730469 0.164062 C 2.292969 0.164062 1.902344 0.0625 1.550781 -0.140625 C 1.203125 -0.34375 0.921875 -0.621094 0.71875 -0.972656 C 0.511719 -1.328125 0.410156 -1.730469 0.410156 -2.183594 C 0.410156 -2.507812 0.472656 -2.828125 0.601562 -3.136719 C 0.730469 -3.449219 0.910156 -3.734375 1.144531 -3.988281 C 1.378906 -4.246094 1.648438 -4.449219 1.960938 -4.601562 C 2.269531 -4.753906 2.605469 -4.832031 2.964844 -4.832031 C 3.414062 -4.832031 3.820312 -4.722656 4.183594 -4.503906 C 4.542969 -4.285156 4.832031 -4 5.046875 -3.644531 C 5.261719 -3.292969 5.367188 -2.90625 5.367188 -2.484375 C 5.367188 -2.035156 5.269531 -1.605469 5.070312 -1.203125 C 4.871094 -0.796875 4.578125 -0.46875 4.1875 -0.214844 C 3.800781 0.0390625 3.3125 0.164062 2.730469 0.164062 Z M 2.976562 -0.1875 C 3.238281 -0.1875 3.476562 -0.238281 3.6875 -0.339844 C 3.898438 -0.441406 4.058594 -0.601562 4.175781 -0.828125 C 4.269531 -1.007812 4.332031 -1.226562 4.363281 -1.480469 C 4.394531 -1.738281 4.410156 -1.980469 4.410156 -2.203125 C 4.410156 -2.578125 4.34375 -2.9375 4.207031 -3.285156 C 4.070312 -3.628906 3.878906 -3.914062 3.632812 -4.136719 C 3.390625 -4.359375 3.097656 -4.46875 2.765625 -4.46875 C 2.554688 -4.46875 2.367188 -4.433594 2.199219 -4.371094 C 2.03125 -4.304688 1.878906 -4.179688 1.738281 -4 C 1.582031 -3.808594 1.480469 -3.570312 1.433594 -3.289062 C 1.386719 -3.007812 1.363281 -2.730469 1.363281 -2.449219 C 1.363281 -2.070312 1.433594 -1.707031 1.574219 -1.359375 C 1.714844 -1.011719 1.90625 -0.730469 2.148438 -0.511719 C 2.386719 -0.296875 2.664062 -0.1875 2.976562 -0.1875 Z "/>
</g>
<g id="glyph-0-9">
<path d="M 0.6875 0.0585938 C 0.585938 0.0585938 0.503906 0.046875 0.441406 0.0273438 C 0.378906 0.0078125 0.351562 -0.0234375 0.351562 -0.0703125 C 0.351562 -0.164062 0.476562 -0.234375 0.734375 -0.28125 C 1.03125 -0.335938 1.234375 -0.425781 1.347656 -0.546875 C 1.460938 -0.671875 1.515625 -0.878906 1.515625 -1.167969 L 1.515625 -6.089844 C 1.515625 -6.441406 1.472656 -6.707031 1.382812 -6.894531 C 1.292969 -7.082031 1.101562 -7.203125 0.804688 -7.257812 C 0.671875 -7.28125 0.574219 -7.3125 0.511719 -7.351562 C 0.449219 -7.390625 0.421875 -7.4375 0.421875 -7.488281 C 0.421875 -7.535156 0.449219 -7.570312 0.511719 -7.589844 C 0.574219 -7.609375 0.65625 -7.617188 0.757812 -7.617188 C 1.046875 -7.617188 1.289062 -7.613281 1.488281 -7.605469 C 1.6875 -7.597656 1.882812 -7.59375 2.078125 -7.589844 C 2.273438 -7.585938 2.5 -7.582031 2.765625 -7.582031 C 2.992188 -7.582031 3.230469 -7.582031 3.488281 -7.582031 C 3.746094 -7.582031 3.992188 -7.582031 4.234375 -7.582031 C 4.484375 -7.582031 4.703125 -7.601562 4.894531 -7.640625 C 5.085938 -7.679688 5.25 -7.699219 5.390625 -7.699219 C 5.429688 -7.699219 5.472656 -7.691406 5.519531 -7.675781 C 5.566406 -7.660156 5.59375 -7.632812 5.601562 -7.59375 C 5.617188 -7.507812 5.628906 -7.382812 5.636719 -7.214844 C 5.644531 -7.046875 5.648438 -6.886719 5.652344 -6.730469 C 5.65625 -6.574219 5.660156 -6.472656 5.660156 -6.417969 C 5.660156 -6.253906 5.625 -6.171875 5.554688 -6.171875 C 5.515625 -6.171875 5.480469 -6.183594 5.449219 -6.210938 C 5.417969 -6.238281 5.394531 -6.273438 5.378906 -6.3125 C 5.347656 -6.445312 5.308594 -6.558594 5.261719 -6.65625 C 5.214844 -6.753906 5.164062 -6.828125 5.109375 -6.882812 C 5 -7.007812 4.878906 -7.089844 4.75 -7.132812 C 4.617188 -7.175781 4.476562 -7.199219 4.328125 -7.199219 L 2.847656 -7.199219 C 2.667969 -7.199219 2.558594 -7.140625 2.519531 -7.023438 C 2.480469 -6.90625 2.457031 -6.769531 2.449219 -6.613281 C 2.441406 -6.464844 2.4375 -6.285156 2.4375 -6.074219 C 2.4375 -5.859375 2.4375 -5.652344 2.4375 -5.449219 C 2.4375 -5.253906 2.4375 -5.054688 2.4375 -4.851562 C 2.4375 -4.652344 2.441406 -4.480469 2.449219 -4.339844 C 2.449219 -4.277344 2.457031 -4.21875 2.46875 -4.164062 C 2.480469 -4.109375 2.511719 -4.082031 2.566406 -4.082031 C 2.816406 -4.082031 3.070312 -4.089844 3.324219 -4.101562 C 3.582031 -4.113281 3.78125 -4.117188 3.921875 -4.117188 C 4.09375 -4.117188 4.238281 -4.164062 4.363281 -4.257812 C 4.488281 -4.351562 4.578125 -4.464844 4.632812 -4.597656 C 4.648438 -4.628906 4.679688 -4.667969 4.726562 -4.71875 C 4.773438 -4.769531 4.8125 -4.796875 4.84375 -4.796875 C 4.875 -4.796875 4.90625 -4.777344 4.945312 -4.742188 C 4.984375 -4.707031 5 -4.664062 4.992188 -4.609375 C 4.984375 -4.476562 4.976562 -4.359375 4.96875 -4.257812 C 4.960938 -4.15625 4.957031 -4.058594 4.957031 -3.964844 C 4.957031 -3.847656 4.960938 -3.730469 4.96875 -3.609375 C 4.976562 -3.488281 4.984375 -3.34375 4.992188 -3.171875 C 4.992188 -3.117188 4.988281 -3.074219 4.976562 -3.035156 C 4.964844 -2.996094 4.933594 -2.976562 4.886719 -2.976562 C 4.808594 -2.976562 4.75 -3.011719 4.707031 -3.082031 C 4.664062 -3.152344 4.636719 -3.203125 4.621094 -3.242188 C 4.566406 -3.421875 4.484375 -3.542969 4.375 -3.609375 C 4.265625 -3.675781 4.164062 -3.710938 4.070312 -3.710938 C 3.96875 -3.710938 3.871094 -3.710938 3.773438 -3.714844 C 3.675781 -3.71875 3.582031 -3.722656 3.488281 -3.722656 C 3.355469 -3.722656 3.226562 -3.722656 3.101562 -3.722656 C 2.976562 -3.722656 2.855469 -3.714844 2.730469 -3.699219 C 2.652344 -3.691406 2.585938 -3.664062 2.53125 -3.621094 C 2.476562 -3.578125 2.449219 -3.507812 2.449219 -3.40625 C 2.449219 -3.046875 2.453125 -2.683594 2.457031 -2.316406 C 2.460938 -1.945312 2.46875 -1.566406 2.484375 -1.179688 C 2.5 -0.929688 2.5625 -0.730469 2.664062 -0.582031 C 2.769531 -0.433594 2.96875 -0.335938 3.253906 -0.28125 C 3.386719 -0.257812 3.484375 -0.230469 3.546875 -0.199219 C 3.609375 -0.167969 3.640625 -0.125 3.640625 -0.0703125 C 3.640625 -0.0234375 3.609375 0.0078125 3.546875 0.0273438 C 3.484375 0.046875 3.402344 0.0585938 3.300781 0.0585938 C 3.089844 0.0585938 2.929688 0.0507812 2.816406 0.0351562 C 2.703125 0.0195312 2.605469 0.00390625 2.515625 -0.00390625 C 2.425781 -0.015625 2.304688 -0.0234375 2.160156 -0.0234375 C 1.972656 -0.0234375 1.804688 -0.015625 1.664062 -0.00390625 C 1.519531 0.0078125 1.371094 0.0195312 1.226562 0.0351562 C 1.078125 0.0507812 0.898438 0.0585938 0.6875 0.0585938 Z "/>
</g>
<g id="glyph-0-10">
<path d="M 1.363281 0.164062 C 1.222656 0.164062 1.082031 0.109375 0.9375 0 C 0.792969 -0.109375 0.675781 -0.242188 0.578125 -0.398438 C 0.480469 -0.554688 0.433594 -0.699219 0.433594 -0.839844 C 0.433594 -1.089844 0.496094 -1.285156 0.628906 -1.421875 C 0.761719 -1.5625 0.972656 -1.691406 1.261719 -1.808594 L 2.449219 -2.296875 C 2.605469 -2.359375 2.695312 -2.414062 2.722656 -2.460938 C 2.75 -2.507812 2.769531 -2.609375 2.777344 -2.765625 L 2.800781 -3.511719 C 2.808594 -3.714844 2.75 -3.890625 2.632812 -4.035156 C 2.511719 -4.183594 2.335938 -4.257812 2.113281 -4.257812 C 1.996094 -4.257812 1.878906 -4.238281 1.761719 -4.199219 C 1.644531 -4.160156 1.546875 -4.109375 1.46875 -4.046875 C 1.421875 -4.015625 1.390625 -3.96875 1.375 -3.910156 C 1.359375 -3.847656 1.351562 -3.78125 1.351562 -3.710938 C 1.351562 -3.679688 1.355469 -3.644531 1.359375 -3.605469 C 1.363281 -3.566406 1.363281 -3.53125 1.363281 -3.5 C 1.363281 -3.460938 1.316406 -3.410156 1.21875 -3.34375 C 1.121094 -3.277344 1.011719 -3.21875 0.890625 -3.167969 C 0.769531 -3.117188 0.671875 -3.089844 0.59375 -3.089844 C 0.554688 -3.089844 0.523438 -3.101562 0.5 -3.121094 C 0.476562 -3.140625 0.464844 -3.164062 0.464844 -3.195312 C 0.464844 -3.320312 0.507812 -3.457031 0.589844 -3.597656 C 0.671875 -3.742188 0.785156 -3.878906 0.933594 -4 C 1.113281 -4.164062 1.308594 -4.308594 1.515625 -4.433594 C 1.726562 -4.558594 1.933594 -4.65625 2.136719 -4.726562 C 2.335938 -4.796875 2.515625 -4.832031 2.671875 -4.832031 C 2.953125 -4.832031 3.183594 -4.730469 3.367188 -4.53125 C 3.550781 -4.332031 3.636719 -4.085938 3.628906 -3.792969 L 3.570312 -0.992188 C 3.5625 -0.828125 3.597656 -0.695312 3.679688 -0.59375 C 3.761719 -0.492188 3.867188 -0.441406 3.988281 -0.441406 C 4.183594 -0.441406 4.328125 -0.484375 4.421875 -0.570312 C 4.460938 -0.609375 4.492188 -0.628906 4.515625 -0.628906 C 4.554688 -0.628906 4.585938 -0.617188 4.609375 -0.59375 C 4.632812 -0.570312 4.644531 -0.539062 4.644531 -0.5 C 4.644531 -0.414062 4.601562 -0.332031 4.515625 -0.246094 C 4.390625 -0.121094 4.257812 -0.0195312 4.113281 0.0507812 C 3.96875 0.125 3.835938 0.164062 3.710938 0.164062 C 3.351562 0.164062 3.070312 -0.0390625 2.859375 -0.441406 L 2.824219 -0.441406 C 2.566406 -0.234375 2.320312 -0.078125 2.089844 0.015625 C 1.855469 0.113281 1.613281 0.164062 1.363281 0.164062 Z M 1.914062 -0.398438 C 2.070312 -0.398438 2.203125 -0.421875 2.308594 -0.472656 C 2.417969 -0.523438 2.515625 -0.589844 2.601562 -0.675781 C 2.640625 -0.714844 2.671875 -0.769531 2.699219 -0.835938 C 2.726562 -0.902344 2.746094 -1.007812 2.753906 -1.15625 L 2.777344 -1.726562 C 2.785156 -1.8125 2.78125 -1.875 2.765625 -1.914062 C 2.75 -1.953125 2.71875 -1.972656 2.671875 -1.972656 C 2.65625 -1.972656 2.628906 -1.96875 2.589844 -1.960938 C 2.550781 -1.953125 2.5 -1.9375 2.4375 -1.914062 C 2.027344 -1.765625 1.742188 -1.613281 1.582031 -1.453125 C 1.421875 -1.292969 1.339844 -1.148438 1.339844 -1.015625 C 1.339844 -0.8125 1.402344 -0.660156 1.523438 -0.554688 C 1.644531 -0.449219 1.773438 -0.398438 1.914062 -0.398438 Z "/>
</g>
<g id="glyph-0-11">
<path d="M 4.269531 0.222656 C 4.214844 0.222656 4.1875 0.191406 4.1875 0.128906 C 4.1875 0.0507812 4.199219 -0.0625 4.21875 -0.214844 C 4.238281 -0.367188 4.246094 -0.492188 4.246094 -0.59375 C 4.246094 -0.609375 4.246094 -0.625 4.246094 -0.636719 C 4.246094 -0.648438 4.246094 -0.65625 4.246094 -0.664062 C 3.941406 -0.367188 3.636719 -0.15625 3.332031 -0.0273438 C 3.023438 0.101562 2.6875 0.164062 2.320312 0.164062 C 2.074219 0.164062 1.847656 0.109375 1.644531 0.00390625 C 1.441406 -0.101562 1.285156 -0.253906 1.167969 -0.460938 C 1.050781 -0.667969 0.992188 -0.921875 0.992188 -1.226562 L 0.992188 -3.59375 C 0.992188 -3.765625 0.953125 -3.902344 0.875 -4 C 0.796875 -4.101562 0.667969 -4.1875 0.488281 -4.257812 C 0.449219 -4.273438 0.417969 -4.292969 0.386719 -4.316406 C 0.355469 -4.339844 0.339844 -4.382812 0.339844 -4.445312 C 0.339844 -4.515625 0.355469 -4.5625 0.390625 -4.585938 C 0.425781 -4.609375 0.464844 -4.625 0.511719 -4.632812 C 0.777344 -4.648438 0.980469 -4.667969 1.125 -4.695312 C 1.269531 -4.722656 1.449219 -4.765625 1.667969 -4.820312 C 1.691406 -4.828125 1.710938 -4.832031 1.722656 -4.832031 C 1.734375 -4.832031 1.746094 -4.832031 1.761719 -4.832031 C 1.847656 -4.832031 1.886719 -4.777344 1.878906 -4.667969 C 1.855469 -4.488281 1.835938 -4.339844 1.824219 -4.21875 C 1.8125 -4.097656 1.808594 -3.949219 1.808594 -3.769531 L 1.808594 -1.492188 C 1.808594 -1.304688 1.855469 -1.132812 1.949219 -0.972656 C 2.042969 -0.8125 2.164062 -0.683594 2.316406 -0.582031 C 2.46875 -0.480469 2.625 -0.433594 2.789062 -0.433594 C 2.992188 -0.433594 3.167969 -0.441406 3.320312 -0.464844 C 3.472656 -0.488281 3.621094 -0.554688 3.769531 -0.664062 C 3.855469 -0.726562 3.960938 -0.828125 4.09375 -0.96875 C 4.226562 -1.109375 4.292969 -1.300781 4.292969 -1.539062 L 4.292969 -3.675781 C 4.292969 -3.839844 4.246094 -3.960938 4.148438 -4.042969 C 4.050781 -4.125 3.941406 -4.179688 3.816406 -4.210938 C 3.691406 -4.242188 3.589844 -4.257812 3.511719 -4.257812 C 3.441406 -4.257812 3.382812 -4.273438 3.335938 -4.300781 C 3.289062 -4.328125 3.265625 -4.378906 3.265625 -4.457031 C 3.265625 -4.527344 3.292969 -4.574219 3.34375 -4.597656 C 3.394531 -4.621094 3.449219 -4.632812 3.511719 -4.632812 C 3.753906 -4.640625 3.953125 -4.648438 4.113281 -4.660156 C 4.273438 -4.671875 4.414062 -4.691406 4.542969 -4.71875 C 4.671875 -4.746094 4.808594 -4.78125 4.945312 -4.820312 C 4.960938 -4.828125 4.980469 -4.832031 5.003906 -4.835938 C 5.027344 -4.839844 5.046875 -4.84375 5.0625 -4.84375 C 5.164062 -4.84375 5.214844 -4.800781 5.214844 -4.714844 C 5.214844 -4.707031 5.214844 -4.691406 5.210938 -4.671875 C 5.207031 -4.652344 5.199219 -4.632812 5.191406 -4.609375 C 5.183594 -4.585938 5.175781 -4.519531 5.164062 -4.410156 C 5.152344 -4.300781 5.140625 -4.1875 5.128906 -4.070312 C 5.117188 -3.953125 5.109375 -3.867188 5.109375 -3.804688 L 5.109375 -1.109375 C 5.109375 -0.898438 5.132812 -0.75 5.175781 -0.660156 C 5.21875 -0.570312 5.265625 -0.523438 5.320312 -0.523438 C 5.382812 -0.523438 5.472656 -0.53125 5.59375 -0.542969 C 5.714844 -0.554688 5.800781 -0.558594 5.855469 -0.558594 C 5.894531 -0.558594 5.933594 -0.550781 5.972656 -0.535156 C 6.011719 -0.519531 6.03125 -0.476562 6.03125 -0.410156 C 6.03125 -0.347656 6.015625 -0.304688 5.984375 -0.285156 C 5.953125 -0.265625 5.914062 -0.253906 5.867188 -0.246094 C 5.566406 -0.207031 5.304688 -0.148438 5.085938 -0.0703125 C 4.867188 0.0078125 4.675781 0.0820312 4.503906 0.152344 C 4.480469 0.160156 4.445312 0.171875 4.398438 0.191406 C 4.351562 0.210938 4.308594 0.222656 4.269531 0.222656 Z "/>
</g>
<g id="glyph-0-12">
<path d="M 0.570312 0.0351562 C 0.492188 0.0351562 0.4375 0.0234375 0.398438 0.00390625 C 0.359375 -0.015625 0.339844 -0.046875 0.339844 -0.09375 C 0.339844 -0.15625 0.363281 -0.195312 0.410156 -0.214844 C 0.457031 -0.234375 0.519531 -0.257812 0.605469 -0.28125 C 0.753906 -0.320312 0.867188 -0.375 0.9375 -0.449219 C 1.011719 -0.523438 1.050781 -0.613281 1.050781 -0.722656 L 1.050781 -3.230469 C 1.050781 -3.441406 1.019531 -3.625 0.957031 -3.78125 C 0.894531 -3.9375 0.765625 -4.03125 0.570312 -4.070312 C 0.539062 -4.078125 0.511719 -4.097656 0.488281 -4.128906 C 0.464844 -4.160156 0.453125 -4.191406 0.453125 -4.222656 C 0.453125 -4.300781 0.488281 -4.347656 0.558594 -4.363281 C 0.761719 -4.425781 0.972656 -4.515625 1.195312 -4.636719 C 1.417969 -4.757812 1.589844 -4.855469 1.714844 -4.933594 C 1.761719 -4.964844 1.796875 -4.988281 1.824219 -5 C 1.851562 -5.011719 1.875 -5.015625 1.890625 -5.015625 C 1.929688 -5.015625 1.949219 -4.988281 1.949219 -4.933594 C 1.949219 -4.910156 1.945312 -4.851562 1.941406 -4.761719 C 1.9375 -4.667969 1.933594 -4.558594 1.929688 -4.433594 C 1.925781 -4.308594 1.921875 -4.183594 1.914062 -4.058594 C 1.914062 -4.042969 1.921875 -4.035156 1.9375 -4.035156 C 2.0625 -4.191406 2.199219 -4.328125 2.351562 -4.445312 C 2.503906 -4.5625 2.65625 -4.65625 2.816406 -4.726562 C 2.976562 -4.796875 3.128906 -4.832031 3.277344 -4.832031 C 3.441406 -4.832031 3.574219 -4.796875 3.679688 -4.726562 C 3.785156 -4.65625 3.839844 -4.566406 3.839844 -4.457031 C 3.839844 -4.378906 3.816406 -4.292969 3.773438 -4.199219 C 3.730469 -4.105469 3.675781 -4.023438 3.605469 -3.957031 C 3.535156 -3.886719 3.460938 -3.851562 3.382812 -3.851562 C 3.335938 -3.851562 3.285156 -3.859375 3.230469 -3.878906 C 3.175781 -3.898438 3.117188 -3.925781 3.058594 -3.957031 C 2.996094 -3.980469 2.933594 -4 2.871094 -4.023438 C 2.808594 -4.046875 2.746094 -4.058594 2.683594 -4.058594 C 2.496094 -4.058594 2.316406 -3.992188 2.140625 -3.863281 C 1.964844 -3.730469 1.878906 -3.46875 1.878906 -3.082031 L 1.878906 -0.722656 C 1.878906 -0.621094 1.933594 -0.539062 2.042969 -0.472656 C 2.152344 -0.40625 2.300781 -0.34375 2.496094 -0.28125 C 2.582031 -0.257812 2.648438 -0.234375 2.695312 -0.210938 C 2.742188 -0.1875 2.765625 -0.148438 2.765625 -0.09375 C 2.765625 -0.0078125 2.6875 0.0351562 2.53125 0.0351562 C 2.296875 0.0351562 2.121094 0.0234375 2 0.00390625 C 1.878906 -0.015625 1.71875 -0.0234375 1.515625 -0.0234375 C 1.382812 -0.0234375 1.277344 -0.0195312 1.195312 -0.0117188 C 1.113281 -0.00390625 1.027344 0.00390625 0.9375 0.015625 C 0.847656 0.0273438 0.726562 0.0351562 0.570312 0.0351562 Z "/>
</g>
</g>
<image id="source-36" x="0" y="0" width="0" height="0"/>
<mask id="mask-0">
<use xlink:href="#source-36"/>
</mask>
</defs>
<g fill="rgb(23.921569%, 22.352941%, 16.078431%)" fill-opacity="1">
<use xlink:href="#glyph-0-0" x="30" y="31.749023"/>
<use xlink:href="#glyph-0-1" x="37" y="31.749023"/>
<use xlink:href="#glyph-0-2" x="42" y="31.749023"/>
<use xlink:href="#glyph-0-1" x="48" y="31.749023"/>
<use xlink:href="#glyph-0-3" x="53" y="31.749023"/>
<use xlink:href="#glyph-0-4" x="59" y="31.749023"/>
<use xlink:href="#glyph-0-5" x="63" y="31.749023"/>
<use xlink:href="#glyph-0-6" x="67" y="31.749023"/>
<use xlink:href="#glyph-0-7" x="70" y="31.749023"/>
<use xlink:href="#glyph-0-2" x="72" y="31.749023"/>
<use xlink:href="#glyph-0-8" x="78" y="31.749023"/>
<use xlink:href="#glyph-0-4" x="84" y="31.749023"/>
<use xlink:href="#glyph-0-7" x="88" y="31.749023"/>
<use xlink:href="#glyph-0-9" x="90" y="31.749023"/>
<use xlink:href="#glyph-0-1" x="96" y="31.749023"/>
<use xlink:href="#glyph-0-10" x="101" y="31.749023"/>
<use xlink:href="#glyph-0-4" x="106" y="31.749023"/>
<use xlink:href="#glyph-0-11" x="110" y="31.749023"/>
<use xlink:href="#glyph-0-12" x="116" y="31.749023"/>
<use xlink:href="#glyph-0-1" x="120" y="31.749023"/>
<use xlink:href="#glyph-0-5" x="125" y="31.749023"/>
</g>
</svg>
