<?xml version="1.0" encoding="UTF-8"?>
<svg xmlns="http://www.w3.org/2000/svg" width="423" height="427" viewBox="0 0 423 427" role="img" aria-label="icon">
  <path d="M 91.0 197.0 L 89.0 199.0 L 89.0 217.0 L 90.0 218.0 L 90.0 226.0 L 87.0 230.0 L 87.0 235.0 L 90.0 237.0 L 92.0 237.0 L 96.0 235.0 L 92.0 228.0 L 92.0 198.0 Z M 367.0 106.0 L 363.0 106.0 L 360.0 108.0 L 360.0 114.0 L 364.0 117.0 L 364.0 130.0 L 362.0 134.0 L 312.0 186.0 L 310.0 187.0 L 304.0 187.0 L 302.0 189.0 L 302.0 192.0 L 305.0 195.0 L 309.0 195.0 L 312.0 193.0 L 312.0 189.0 L 316.0 186.0 L 319.0 182.0 L 323.0 179.0 L 326.0 175.0 L 331.0 171.0 L 332.0 169.0 L 339.0 162.0 L 340.0 162.0 L 361.0 140.0 L 366.0 132.0 L 366.0 117.0 L 370.0 114.0 L 370.0 109.0 Z M 306.0 190.0 L 307.0 189.0 L 308.0 191.0 L 307.0 192.0 Z M 365.0 109.0 L 366.0 111.0 L 364.0 112.0 L 363.0 111.0 Z M 213.0 90.0 L 212.0 91.0 L 212.0 97.0 L 213.0 98.0 L 213.0 222.0 L 215.0 223.0 L 216.0 222.0 L 215.0 219.0 L 215.0 90.0 Z M 211.0 69.0 L 208.0 72.0 L 208.0 77.0 L 211.0 80.0 L 216.0 80.0 L 219.0 77.0 L 219.0 73.0 L 217.0 70.0 L 215.0 69.0 Z M 212.0 72.0 L 214.0 72.0 L 216.0 74.0 L 216.0 75.0 L 214.0 77.0 L 212.0 77.0 L 210.0 75.0 L 210.0 74.0 Z M 275.0 66.0 L 272.0 66.0 L 269.0 69.0 L 269.0 74.0 L 272.0 77.0 L 273.0 80.0 L 273.0 124.0 L 272.0 128.0 L 268.0 134.0 L 234.0 169.0 L 232.0 173.0 L 232.0 208.0 L 233.0 209.0 L 234.0 208.0 L 234.0 175.0 L 236.0 171.0 L 267.0 139.0 L 275.0 128.0 L 275.0 77.0 L 278.0 73.0 L 278.0 69.0 Z M 109.0 56.0 L 108.0 57.0 L 108.0 95.0 L 109.0 96.0 L 110.0 95.0 L 110.0 57.0 Z M 351.0 74.0 L 348.0 126.0 L 281.0 198.0 L 280.0 251.0 L 244.0 298.0 L 263.0 189.0 L 323.0 131.0 L 261.0 188.0 L 260.0 263.0 L 232.0 314.0 L 254.0 182.0 L 285.0 148.0 L 279.0 42.0 L 283.0 146.0 L 233.0 261.0 L 224.0 170.0 L 263.0 92.0 L 222.0 168.0 L 212.0 343.0 L 189.0 120.0 L 206.0 336.0 L 202.0 219.0 L 197.0 326.0 L 195.0 192.0 L 171.0 166.0 L 175.0 57.0 L 167.0 161.0 L 146.0 96.0 L 150.0 147.0 L 192.0 193.0 L 191.0 317.0 L 164.0 281.0 L 171.0 178.0 L 128.0 132.0 L 174.0 186.0 L 165.0 247.0 L 158.0 203.0 L 111.0 152.0 L 109.0 104.0 L 104.0 147.0 L 156.0 207.0 L 153.0 267.0 L 140.0 209.0 L 82.0 147.0 L 75.0 93.0 L 79.0 147.0 L 139.0 213.0 L 120.0 282.0 L 105.0 197.0 L 37.0 126.0 L 104.0 201.0 L 124.0 390.0 L 136.0 266.0 L 215.0 359.0 L 284.0 265.0 L 298.0 389.0 L 317.0 222.0 L 386.0 155.0 L 316.0 218.0 L 299.0 282.0 L 283.0 200.0 L 350.0 128.0 Z M 160.0 225.0 L 162.0 227.0 L 162.0 275.0 L 161.0 276.0 L 160.0 276.0 L 158.0 273.0 L 158.0 227.0 Z M 225.0 224.0 L 226.0 224.0 L 229.0 227.0 L 229.0 317.0 L 228.0 318.0 L 228.0 321.0 L 226.0 324.0 L 224.0 323.0 L 224.0 225.0 Z M 380.0 153.0 L 381.0 151.0 L 383.0 152.0 L 381.0 154.0 Z M 129.0 137.0 L 130.0 136.0 L 132.0 137.0 L 131.0 138.0 Z M 318.0 134.0 L 319.0 133.0 L 321.0 134.0 L 320.0 135.0 Z M 40.0 127.0 L 42.0 127.0 L 44.0 129.0 L 44.0 132.0 L 42.0 134.0 L 41.0 134.0 L 38.0 131.0 L 38.0 129.0 Z M 79.0 96.0 L 80.0 95.0 L 81.0 96.0 L 80.0 97.0 Z M 150.0 93.0 L 151.0 92.0 L 152.0 93.0 L 151.0 94.0 Z M 169.0 60.0 L 170.0 58.0 L 172.0 59.0 L 170.0 61.0 Z M 283.0 45.0 L 284.0 44.0 L 285.0 45.0 L 284.0 46.0 Z M 107.0 36.0 L 104.0 39.0 L 104.0 43.0 L 106.0 46.0 L 108.0 47.0 L 111.0 47.0 L 114.0 45.0 L 115.0 43.0 L 115.0 39.0 L 112.0 36.0 Z M 108.0 41.0 L 109.0 40.0 L 111.0 41.0 L 110.0 42.0 Z" fill="#111111" fill-rule="evenodd"/>
</svg>
