<?xml version="1.0" encoding="UTF-8"?>
<svg xmlns="http://www.w3.org/2000/svg" width="580" height="500" viewBox="0 0 580 500" role="img" aria-label="icon">
  <path d="M 513.0 327.0 L 511.0 328.0 L 508.0 332.0 L 508.0 338.0 L 513.0 342.0 L 518.0 342.0 L 522.0 339.0 L 523.0 337.0 L 523.0 333.0 L 520.0 328.0 L 518.0 327.0 Z M 540.0 286.0 L 535.0 290.0 L 532.0 291.0 L 527.0 296.0 L 527.0 297.0 L 531.0 301.0 L 536.0 302.0 L 539.0 305.0 L 542.0 305.0 L 543.0 304.0 L 543.0 300.0 L 540.0 293.0 L 542.0 291.0 L 543.0 287.0 L 542.0 286.0 Z M 38.0 254.0 L 37.0 255.0 L 37.0 261.0 L 41.0 266.0 L 41.0 270.0 L 42.0 271.0 L 49.0 271.0 L 50.0 270.0 L 50.0 268.0 L 49.0 267.0 L 49.0 264.0 L 48.0 263.0 L 48.0 258.0 L 49.0 257.0 L 50.0 253.0 L 49.0 252.0 L 43.0 252.0 L 42.0 253.0 Z M 510.0 225.0 L 508.0 228.0 L 508.0 234.0 L 512.0 238.0 L 518.0 238.0 L 520.0 237.0 L 523.0 233.0 L 523.0 229.0 L 522.0 227.0 L 519.0 224.0 L 512.0 224.0 Z M 64.0 224.0 L 61.0 227.0 L 61.0 229.0 L 60.0 230.0 L 61.0 234.0 L 65.0 238.0 L 71.0 238.0 L 73.0 237.0 L 76.0 233.0 L 76.0 228.0 L 72.0 224.0 L 70.0 224.0 L 69.0 223.0 Z M 528.0 152.0 L 527.0 153.0 L 527.0 155.0 L 529.0 157.0 L 529.0 162.0 L 530.0 163.0 L 530.0 165.0 L 529.0 166.0 L 529.0 171.0 L 531.0 173.0 L 531.0 174.0 L 522.0 183.0 L 522.0 185.0 L 527.0 190.0 L 530.0 191.0 L 532.0 193.0 L 535.0 193.0 L 536.0 192.0 L 536.0 189.0 L 538.0 186.0 L 538.0 184.0 L 535.0 179.0 L 535.0 174.0 L 536.0 173.0 L 537.0 168.0 L 539.0 165.0 L 539.0 156.0 L 536.0 154.0 Z M 54.0 152.0 L 49.0 156.0 L 48.0 158.0 L 48.0 162.0 L 52.0 167.0 L 59.0 167.0 L 63.0 163.0 L 63.0 157.0 L 61.0 154.0 L 57.0 152.0 Z M 510.0 66.0 L 509.0 67.0 L 507.0 67.0 L 504.0 70.0 L 503.0 76.0 L 507.0 81.0 L 512.0 82.0 L 517.0 79.0 L 519.0 74.0 L 516.0 68.0 L 512.0 66.0 Z M 207.0 66.0 L 202.0 70.0 L 201.0 72.0 L 201.0 76.0 L 205.0 81.0 L 209.0 82.0 L 210.0 81.0 L 212.0 81.0 L 216.0 77.0 L 216.0 72.0 L 212.0 67.0 L 210.0 66.0 Z M 68.0 66.0 L 63.0 69.0 L 62.0 71.0 L 62.0 77.0 L 66.0 81.0 L 70.0 82.0 L 71.0 81.0 L 73.0 81.0 L 76.0 78.0 L 77.0 76.0 L 77.0 72.0 L 73.0 67.0 L 71.0 66.0 Z M 117.0 43.0 L 112.0 47.0 L 112.0 52.0 L 115.0 55.0 L 121.0 55.0 L 125.0 51.0 L 125.0 46.0 L 123.0 43.0 Z M 452.0 43.0 L 453.0 46.0 L 460.0 53.0 L 472.0 53.0 L 473.0 52.0 L 477.0 52.0 L 481.0 48.0 L 481.0 46.0 L 480.0 45.0 L 473.0 45.0 L 469.0 43.0 L 467.0 41.0 L 464.0 41.0 L 463.0 42.0 L 464.0 43.0 L 464.0 45.0 L 463.0 46.0 L 461.0 46.0 L 456.0 41.0 L 454.0 41.0 Z M 168.0 43.0 L 169.0 46.0 L 175.0 53.0 L 185.0 53.0 L 186.0 54.0 L 188.0 54.0 L 191.0 52.0 L 193.0 52.0 L 196.0 48.0 L 195.0 46.0 L 191.0 46.0 L 184.0 41.0 L 179.0 41.0 L 178.0 42.0 L 179.0 44.0 L 177.0 46.0 L 174.0 42.0 L 169.0 42.0 Z M 513.0 101.0 L 471.0 100.0 L 468.0 58.0 L 464.0 98.0 L 439.0 100.0 L 435.0 53.0 L 421.0 100.0 L 418.0 42.0 L 414.0 98.0 L 399.0 100.0 L 394.0 36.0 L 391.0 98.0 L 348.0 101.0 L 348.0 133.0 L 289.0 226.0 L 266.0 190.0 L 195.0 190.0 L 264.0 186.0 L 233.0 100.0 L 187.0 100.0 L 183.0 57.0 L 179.0 99.0 L 154.0 100.0 L 147.0 40.0 L 146.0 98.0 L 122.0 101.0 L 117.0 58.0 L 109.0 314.0 L 140.0 343.0 L 106.0 315.0 L 106.0 101.0 L 65.0 100.0 L 64.0 124.0 L 82.0 127.0 L 82.0 256.0 L 52.0 262.0 L 82.0 265.0 L 82.0 333.0 L 38.0 327.0 L 37.0 346.0 L 79.0 340.0 L 117.0 371.0 L 83.0 352.0 L 79.0 370.0 L 37.0 366.0 L 41.0 382.0 L 82.0 377.0 L 38.0 391.0 L 85.0 400.0 L 65.0 462.0 L 192.0 462.0 L 178.0 267.0 L 252.0 386.0 L 252.0 427.0 L 259.0 385.0 L 276.0 387.0 L 279.0 431.0 L 295.0 387.0 L 296.0 432.0 L 300.0 387.0 L 317.0 385.0 L 323.0 445.0 L 324.0 387.0 L 399.0 268.0 L 404.0 349.0 L 441.0 310.0 L 443.0 263.0 L 444.0 310.0 L 402.0 356.0 L 441.0 371.0 L 402.0 370.0 L 388.0 462.0 L 515.0 463.0 L 516.0 442.0 L 497.0 439.0 L 497.0 300.0 L 524.0 294.0 L 496.0 277.0 L 535.0 268.0 L 497.0 264.0 L 497.0 188.0 L 519.0 182.0 L 496.0 169.0 L 524.0 164.0 L 495.0 150.0 Z M 119.0 437.0 L 120.0 436.0 L 134.0 436.0 L 135.0 438.0 L 134.0 439.0 L 120.0 439.0 Z M 161.0 431.0 L 165.0 432.0 L 168.0 435.0 L 168.0 440.0 L 165.0 443.0 L 160.0 443.0 L 154.0 438.0 L 154.0 437.0 Z M 99.0 435.0 L 104.0 431.0 L 109.0 431.0 L 111.0 432.0 L 116.0 437.0 L 116.0 438.0 L 111.0 444.0 L 109.0 445.0 L 103.0 445.0 L 99.0 441.0 Z M 432.0 430.0 L 437.0 430.0 L 441.0 434.0 L 441.0 438.0 L 437.0 442.0 L 432.0 442.0 L 428.0 437.0 L 429.0 433.0 Z M 87.0 414.0 L 88.0 413.0 L 90.0 414.0 L 105.0 414.0 L 106.0 413.0 L 119.0 413.0 L 120.0 414.0 L 126.0 414.0 L 127.0 413.0 L 131.0 413.0 L 132.0 414.0 L 138.0 414.0 L 139.0 413.0 L 148.0 413.0 L 149.0 414.0 L 151.0 414.0 L 152.0 413.0 L 159.0 413.0 L 160.0 414.0 L 162.0 414.0 L 163.0 413.0 L 184.0 413.0 L 185.0 414.0 L 187.0 414.0 L 188.0 416.0 L 187.0 417.0 L 89.0 417.0 L 87.0 415.0 Z M 181.0 400.0 L 182.0 399.0 L 184.0 399.0 L 185.0 401.0 L 184.0 402.0 L 182.0 402.0 Z M 164.0 400.0 L 165.0 399.0 L 174.0 399.0 L 175.0 401.0 L 174.0 402.0 L 165.0 402.0 Z M 151.0 400.0 L 152.0 399.0 L 157.0 399.0 L 158.0 401.0 L 157.0 402.0 L 152.0 402.0 Z M 86.0 400.0 L 87.0 399.0 L 146.0 399.0 L 147.0 401.0 L 146.0 402.0 L 87.0 402.0 Z M 439.0 380.0 L 441.0 381.0 L 440.0 384.0 L 430.0 396.0 L 429.0 399.0 L 461.0 428.0 L 469.0 428.0 L 470.0 427.0 L 470.0 415.0 L 471.0 414.0 L 473.0 415.0 L 473.0 454.0 L 472.0 455.0 L 470.0 454.0 L 470.0 432.0 L 469.0 431.0 L 460.0 431.0 L 425.0 399.0 Z M 311.0 351.0 L 316.0 352.0 L 319.0 356.0 L 319.0 360.0 L 315.0 364.0 L 310.0 364.0 L 306.0 360.0 L 306.0 355.0 Z M 333.0 318.0 L 336.0 321.0 L 337.0 323.0 L 337.0 326.0 L 333.0 330.0 L 330.0 331.0 L 325.0 327.0 L 324.0 323.0 L 328.0 319.0 L 330.0 318.0 Z M 87.0 315.0 L 90.0 314.0 L 95.0 318.0 L 95.0 323.0 L 94.0 325.0 L 97.0 328.0 L 97.0 329.0 L 110.0 342.0 L 110.0 343.0 L 130.0 364.0 L 130.0 365.0 L 138.0 373.0 L 138.0 374.0 L 145.0 381.0 L 149.0 380.0 L 154.0 384.0 L 154.0 388.0 L 151.0 391.0 L 145.0 391.0 L 143.0 389.0 L 143.0 383.0 L 142.0 381.0 L 108.0 345.0 L 108.0 344.0 L 93.0 328.0 L 93.0 327.0 L 92.0 326.0 L 87.0 326.0 L 84.0 323.0 L 84.0 318.0 Z M 303.0 306.0 L 304.0 305.0 L 306.0 305.0 L 307.0 307.0 L 306.0 308.0 L 304.0 308.0 Z M 286.0 306.0 L 287.0 305.0 L 297.0 305.0 L 298.0 307.0 L 297.0 308.0 L 287.0 308.0 Z M 254.0 294.0 L 275.0 317.0 L 277.0 321.0 L 284.0 328.0 L 284.0 329.0 L 290.0 335.0 L 291.0 337.0 L 293.0 336.0 L 298.0 336.0 L 301.0 339.0 L 301.0 344.0 L 298.0 347.0 L 292.0 347.0 L 290.0 345.0 L 289.0 343.0 L 289.0 338.0 L 283.0 332.0 L 280.0 327.0 L 273.0 320.0 L 273.0 319.0 L 253.0 296.0 Z M 252.0 294.0 L 253.0 293.0 L 254.0 294.0 L 253.0 295.0 Z M 244.0 280.0 L 248.0 280.0 L 252.0 284.0 L 252.0 291.0 L 253.0 292.0 L 252.0 294.0 L 250.0 292.0 L 245.0 292.0 L 241.0 289.0 L 240.0 287.0 L 240.0 284.0 Z M 471.0 274.0 L 473.0 275.0 L 473.0 411.0 L 472.0 412.0 L 470.0 411.0 L 470.0 275.0 Z M 208.0 272.0 L 212.0 271.0 L 213.0 272.0 L 215.0 272.0 L 218.0 275.0 L 218.0 284.0 L 219.0 286.0 L 224.0 291.0 L 226.0 295.0 L 232.0 301.0 L 235.0 306.0 L 240.0 311.0 L 240.0 312.0 L 252.0 326.0 L 255.0 331.0 L 261.0 337.0 L 264.0 342.0 L 269.0 342.0 L 272.0 345.0 L 272.0 351.0 L 268.0 354.0 L 264.0 354.0 L 261.0 351.0 L 260.0 349.0 L 261.0 342.0 L 256.0 335.0 L 246.0 324.0 L 246.0 323.0 L 238.0 314.0 L 228.0 300.0 L 217.0 288.0 L 217.0 287.0 L 215.0 285.0 L 209.0 285.0 L 205.0 281.0 L 204.0 277.0 Z M 471.0 267.0 L 473.0 268.0 L 473.0 272.0 L 472.0 273.0 L 470.0 272.0 L 470.0 268.0 Z M 228.0 256.0 L 231.0 253.0 L 236.0 253.0 L 239.0 256.0 L 240.0 263.0 L 261.0 285.0 L 261.0 286.0 L 276.0 302.0 L 276.0 303.0 L 282.0 306.0 L 282.0 309.0 L 293.0 322.0 L 307.0 322.0 L 308.0 324.0 L 307.0 325.0 L 293.0 325.0 L 284.0 316.0 L 284.0 315.0 L 259.0 288.0 L 259.0 287.0 L 251.0 279.0 L 251.0 278.0 L 237.0 264.0 L 235.0 265.0 L 231.0 265.0 L 228.0 262.0 L 227.0 260.0 Z M 242.0 244.0 L 243.0 244.0 L 252.0 253.0 L 252.0 254.0 L 274.0 277.0 L 274.0 278.0 L 282.0 286.0 L 284.0 287.0 L 283.0 289.0 L 281.0 289.0 L 259.0 266.0 L 259.0 265.0 L 251.0 257.0 L 251.0 256.0 L 241.0 246.0 Z M 402.0 239.0 L 408.0 239.0 L 412.0 244.0 L 411.0 249.0 L 407.0 252.0 L 403.0 252.0 L 401.0 251.0 L 398.0 247.0 L 398.0 243.0 Z M 121.0 239.0 L 122.0 239.0 L 129.0 245.0 L 129.0 250.0 L 125.0 254.0 L 119.0 254.0 L 116.0 251.0 L 116.0 246.0 Z M 209.0 238.0 L 213.0 239.0 L 218.0 245.0 L 215.0 248.0 L 215.0 249.0 L 211.0 252.0 L 208.0 252.0 L 203.0 247.0 L 203.0 243.0 Z M 408.0 222.0 L 409.0 222.0 L 417.0 230.0 L 418.0 230.0 L 422.0 234.0 L 422.0 235.0 L 429.0 241.0 L 429.0 276.0 L 428.0 277.0 L 426.0 276.0 L 426.0 242.0 L 407.0 224.0 Z M 396.0 222.0 L 397.0 224.0 L 394.0 227.0 L 393.0 230.0 L 387.0 238.0 L 385.0 243.0 L 379.0 251.0 L 377.0 256.0 L 371.0 264.0 L 370.0 267.0 L 366.0 272.0 L 362.0 280.0 L 353.0 293.0 L 348.0 303.0 L 344.0 307.0 L 343.0 307.0 L 342.0 305.0 L 347.0 299.0 L 348.0 296.0 L 352.0 291.0 L 354.0 286.0 L 358.0 281.0 L 362.0 273.0 L 368.0 265.0 L 369.0 262.0 L 373.0 257.0 L 374.0 254.0 L 378.0 249.0 L 379.0 246.0 L 382.0 243.0 L 383.0 239.0 L 388.0 233.0 L 392.0 225.0 L 395.0 222.0 Z M 444.0 228.0 L 445.0 248.0 L 443.0 249.0 L 441.0 229.0 L 422.0 209.0 L 391.0 208.0 L 379.0 225.0 L 342.0 286.0 L 339.0 289.0 L 337.0 288.0 L 389.0 205.0 L 421.0 205.0 Z M 163.0 205.0 L 165.0 205.0 L 167.0 207.0 L 167.0 208.0 L 165.0 210.0 L 163.0 210.0 L 161.0 208.0 L 161.0 207.0 Z M 179.0 203.0 L 180.0 204.0 L 180.0 206.0 L 179.0 207.0 L 177.0 205.0 Z M 421.0 187.0 L 430.0 187.0 L 459.0 216.0 L 459.0 325.0 L 447.0 339.0 L 449.0 342.0 L 449.0 347.0 L 445.0 351.0 L 440.0 351.0 L 436.0 347.0 L 436.0 342.0 L 440.0 338.0 L 444.0 338.0 L 456.0 324.0 L 456.0 217.0 L 430.0 190.0 L 421.0 190.0 L 420.0 189.0 Z M 406.0 188.0 L 407.0 187.0 L 413.0 187.0 L 414.0 189.0 L 413.0 190.0 L 407.0 190.0 Z M 392.0 183.0 L 398.0 183.0 L 400.0 185.0 L 401.0 187.0 L 401.0 190.0 L 400.0 191.0 L 400.0 193.0 L 398.0 195.0 L 392.0 195.0 L 389.0 192.0 L 389.0 186.0 Z M 200.0 176.0 L 202.0 178.0 L 199.0 181.0 L 197.0 181.0 L 196.0 179.0 Z M 468.0 168.0 L 474.0 168.0 L 478.0 172.0 L 478.0 176.0 L 477.0 178.0 L 473.0 181.0 L 469.0 181.0 L 467.0 180.0 L 464.0 176.0 L 464.0 173.0 Z M 432.0 167.0 L 437.0 167.0 L 440.0 169.0 L 444.0 173.0 L 444.0 174.0 L 447.0 176.0 L 473.0 203.0 L 473.0 265.0 L 472.0 266.0 L 470.0 265.0 L 470.0 204.0 L 437.0 170.0 L 432.0 170.0 L 431.0 169.0 Z M 414.0 168.0 L 415.0 167.0 L 420.0 167.0 L 421.0 169.0 L 420.0 170.0 L 415.0 170.0 Z M 402.0 162.0 L 405.0 162.0 L 407.0 163.0 L 411.0 167.0 L 410.0 172.0 L 407.0 175.0 L 402.0 175.0 L 400.0 174.0 L 397.0 170.0 L 397.0 166.0 Z M 192.0 158.0 L 195.0 161.0 L 195.0 167.0 L 191.0 170.0 L 188.0 170.0 L 184.0 168.0 L 178.0 174.0 L 177.0 174.0 L 170.0 181.0 L 168.0 182.0 L 168.0 183.0 L 165.0 186.0 L 165.0 192.0 L 163.0 193.0 L 162.0 192.0 L 162.0 185.0 L 183.0 165.0 L 183.0 161.0 L 186.0 158.0 L 188.0 157.0 Z M 158.0 151.0 L 159.0 152.0 L 140.0 172.0 L 140.0 304.0 L 142.0 306.0 L 142.0 311.0 L 138.0 315.0 L 134.0 315.0 L 130.0 312.0 L 129.0 307.0 L 132.0 303.0 L 137.0 301.0 L 137.0 171.0 L 154.0 153.0 Z M 393.0 149.0 L 394.0 151.0 L 386.0 162.0 L 383.0 169.0 L 356.0 211.0 L 348.0 226.0 L 343.0 232.0 L 333.0 250.0 L 330.0 253.0 L 328.0 257.0 L 330.0 260.0 L 330.0 265.0 L 326.0 269.0 L 320.0 268.0 L 318.0 266.0 L 318.0 260.0 L 320.0 258.0 L 324.0 257.0 L 327.0 254.0 L 376.0 173.0 L 382.0 165.0 L 384.0 160.0 L 387.0 157.0 L 390.0 151.0 Z M 476.0 149.0 L 477.0 148.0 L 491.0 148.0 L 492.0 150.0 L 491.0 151.0 L 477.0 151.0 Z M 471.0 149.0 L 472.0 148.0 L 474.0 148.0 L 475.0 150.0 L 474.0 151.0 L 472.0 151.0 Z M 413.0 149.0 L 414.0 148.0 L 439.0 148.0 L 440.0 150.0 L 439.0 151.0 L 414.0 151.0 Z M 395.0 149.0 L 396.0 148.0 L 401.0 148.0 L 402.0 150.0 L 401.0 151.0 L 396.0 151.0 Z M 144.0 143.0 L 145.0 145.0 L 139.0 151.0 L 138.0 149.0 Z M 201.0 140.0 L 191.0 142.0 L 154.0 181.0 L 154.0 349.0 L 161.0 354.0 L 161.0 360.0 L 158.0 363.0 L 153.0 364.0 L 148.0 360.0 L 148.0 354.0 L 151.0 351.0 L 151.0 180.0 L 191.0 138.0 Z M 152.0 135.0 L 154.0 137.0 L 148.0 142.0 L 147.0 140.0 Z M 222.0 131.0 L 223.0 130.0 L 228.0 130.0 L 229.0 132.0 L 228.0 133.0 L 223.0 133.0 Z M 210.0 131.0 L 211.0 130.0 L 215.0 130.0 L 216.0 132.0 L 215.0 133.0 L 211.0 133.0 Z M 183.0 131.0 L 184.0 130.0 L 204.0 130.0 L 205.0 132.0 L 204.0 133.0 L 184.0 133.0 Z M 179.0 130.0 L 180.0 132.0 L 178.0 133.0 L 161.0 150.0 L 160.0 150.0 L 159.0 148.0 L 177.0 130.0 Z M 459.0 129.0 L 455.0 136.0 L 450.0 136.0 L 446.0 131.0 L 384.0 131.0 L 300.0 266.0 L 279.0 265.0 L 243.0 225.0 L 235.0 225.0 L 232.0 222.0 L 200.0 222.0 L 193.0 227.0 L 188.0 223.0 L 191.0 216.0 L 199.0 219.0 L 230.0 219.0 L 234.0 214.0 L 241.0 213.0 L 247.0 226.0 L 281.0 263.0 L 299.0 263.0 L 383.0 128.0 L 446.0 128.0 L 450.0 124.0 L 455.0 124.0 Z M 166.0 121.0 L 168.0 122.0 L 168.0 124.0 L 167.0 125.0 L 166.0 125.0 L 164.0 123.0 Z M 138.0 121.0 L 145.0 121.0 L 148.0 124.0 L 148.0 130.0 L 144.0 134.0 L 139.0 134.0 L 135.0 130.0 L 135.0 125.0 Z M 121.0 102.0 L 123.0 103.0 L 123.0 237.0 L 122.0 238.0 L 120.0 237.0 L 120.0 103.0 Z" fill="#111111" fill-rule="evenodd"/>
</svg>
