<?xml version="1.0" encoding="UTF-8"?>
<svg xmlns="http://www.w3.org/2000/svg" xmlns:xlink="http://www.w3.org/1999/xlink" width="3840" height="2160" viewBox="0 0 3840 2160">
<defs>
<g>
<g id="glyph-0-0">
<path d="M 2.039062 0.160156 C 1.757812 0.160156 1.5 0.117188 1.265625 0.0351562 C 1.027344 -0.046875 0.816406 -0.167969 0.628906 -0.320312 C 0.601562 -0.347656 0.578125 -0.375 0.554688 -0.410156 C 0.53125 -0.445312 0.511719 -0.480469 0.5 -0.519531 C 0.464844 -0.652344 0.445312 -0.828125 0.433594 -1.039062 C 0.425781 -1.253906 0.414062 -1.429688 0.398438 -1.570312 C 0.398438 -1.617188 0.421875 -1.652344 0.460938 -1.675781 C 0.5 -1.699219 0.546875 -1.710938 0.601562 -1.710938 C 0.632812 -1.710938 0.667969 -1.703125 0.699219 -1.683594 C 0.734375 -1.667969 0.753906 -1.640625 0.761719 -1.601562 C 0.894531 -1.085938 1.089844 -0.71875 1.355469 -0.5 C 1.617188 -0.28125 1.894531 -0.171875 2.179688 -0.171875 C 2.414062 -0.171875 2.621094 -0.21875 2.800781 -0.320312 C 2.980469 -0.421875 3.121094 -0.5625 3.226562 -0.746094 C 3.328125 -0.929688 3.378906 -1.144531 3.378906 -1.390625 C 3.378906 -1.664062 3.335938 -1.886719 3.246094 -2.054688 C 3.15625 -2.226562 3.027344 -2.375 2.859375 -2.5 C 2.691406 -2.625 2.488281 -2.761719 2.25 -2.910156 C 1.988281 -3.078125 1.734375 -3.246094 1.480469 -3.414062 C 1.226562 -3.585938 1.015625 -3.78125 0.851562 -4.003906 C 0.683594 -4.226562 0.601562 -4.5 0.601562 -4.820312 C 0.601562 -5.160156 0.675781 -5.464844 0.828125 -5.738281 C 0.984375 -6.011719 1.214844 -6.230469 1.523438 -6.394531 C 1.835938 -6.558594 2.222656 -6.640625 2.691406 -6.640625 C 2.929688 -6.640625 3.136719 -6.613281 3.316406 -6.566406 C 3.492188 -6.515625 3.632812 -6.464844 3.738281 -6.421875 C 3.792969 -6.402344 3.839844 -6.367188 3.875 -6.320312 C 3.910156 -6.273438 3.9375 -6.222656 3.949219 -6.171875 C 3.988281 -6.03125 4.035156 -5.871094 4.078125 -5.691406 C 4.125 -5.511719 4.148438 -5.339844 4.148438 -5.179688 C 4.148438 -5.105469 4.101562 -5.070312 4 -5.070312 C 3.941406 -5.070312 3.882812 -5.082031 3.824219 -5.109375 C 3.769531 -5.136719 3.734375 -5.171875 3.71875 -5.210938 C 3.578125 -5.5625 3.417969 -5.832031 3.230469 -6.019531 C 3.042969 -6.207031 2.808594 -6.300781 2.519531 -6.300781 C 2.320312 -6.300781 2.132812 -6.261719 1.960938 -6.191406 C 1.785156 -6.117188 1.644531 -5.996094 1.535156 -5.828125 C 1.425781 -5.664062 1.371094 -5.441406 1.371094 -5.160156 C 1.371094 -4.960938 1.433594 -4.777344 1.566406 -4.613281 C 1.695312 -4.449219 1.867188 -4.296875 2.078125 -4.148438 C 2.292969 -4.003906 2.523438 -3.851562 2.769531 -3.699219 C 3.003906 -3.558594 3.230469 -3.40625 3.453125 -3.238281 C 3.675781 -3.074219 3.863281 -2.875 4.003906 -2.644531 C 4.148438 -2.414062 4.21875 -2.132812 4.21875 -1.800781 C 4.21875 -1.40625 4.128906 -1.0625 3.949219 -0.765625 C 3.769531 -0.46875 3.515625 -0.238281 3.191406 -0.078125 C 2.863281 0.0820312 2.480469 0.160156 2.039062 0.160156 Z "/>
</g>
<g id="glyph-0-1">
<path d="M 0.660156 0.0507812 C 0.574219 0.0507812 0.503906 0.0429688 0.449219 0.0234375 C 0.394531 0.0078125 0.371094 -0.0195312 0.371094 -0.0585938 C 0.371094 -0.140625 0.480469 -0.199219 0.699219 -0.238281 C 0.953125 -0.285156 1.140625 -0.363281 1.261719 -0.46875 C 1.378906 -0.578125 1.441406 -0.75 1.441406 -0.988281 L 1.441406 -5.488281 C 1.441406 -5.730469 1.390625 -5.898438 1.296875 -6 C 1.199219 -6.101562 1.023438 -6.171875 0.769531 -6.21875 C 0.65625 -6.238281 0.574219 -6.265625 0.519531 -6.300781 C 0.464844 -6.332031 0.441406 -6.375 0.441406 -6.421875 C 0.441406 -6.460938 0.464844 -6.488281 0.519531 -6.503906 C 0.574219 -6.519531 0.644531 -6.53125 0.730469 -6.53125 C 0.984375 -6.53125 1.199219 -6.527344 1.375 -6.519531 C 1.550781 -6.511719 1.726562 -6.507812 1.894531 -6.503906 C 2.066406 -6.5 2.265625 -6.5 2.5 -6.5 C 2.71875 -6.5 2.953125 -6.5 3.195312 -6.503906 C 3.4375 -6.507812 3.664062 -6.511719 3.871094 -6.511719 C 4.097656 -6.515625 4.289062 -6.523438 4.445312 -6.523438 C 4.601562 -6.527344 4.691406 -6.53125 4.71875 -6.53125 C 4.753906 -6.53125 4.789062 -6.523438 4.828125 -6.511719 C 4.871094 -6.496094 4.894531 -6.472656 4.898438 -6.441406 C 4.933594 -6.253906 4.964844 -6.066406 5 -5.886719 C 5.035156 -5.703125 5.050781 -5.542969 5.050781 -5.410156 C 5.050781 -5.351562 5.035156 -5.308594 5.003906 -5.289062 C 4.976562 -5.269531 4.941406 -5.261719 4.910156 -5.261719 C 4.875 -5.261719 4.851562 -5.269531 4.839844 -5.285156 C 4.828125 -5.300781 4.8125 -5.328125 4.800781 -5.359375 C 4.765625 -5.472656 4.734375 -5.582031 4.699219 -5.683594 C 4.667969 -5.789062 4.625 -5.863281 4.578125 -5.910156 C 4.484375 -6.015625 4.382812 -6.089844 4.269531 -6.125 C 4.15625 -6.160156 4.035156 -6.179688 3.910156 -6.179688 L 2.601562 -6.179688 C 2.546875 -6.179688 2.472656 -6.148438 2.378906 -6.089844 C 2.285156 -6.03125 2.238281 -5.953125 2.238281 -5.859375 L 2.238281 -3.738281 C 2.238281 -3.679688 2.257812 -3.628906 2.296875 -3.585938 C 2.332031 -3.542969 2.375 -3.519531 2.421875 -3.519531 L 3.410156 -3.519531 C 3.601562 -3.519531 3.738281 -3.554688 3.808594 -3.625 C 3.882812 -3.695312 3.941406 -3.824219 3.988281 -4.011719 C 4.03125 -4.15625 4.089844 -4.230469 4.171875 -4.230469 C 4.199219 -4.230469 4.226562 -4.214844 4.253906 -4.191406 C 4.285156 -4.164062 4.300781 -4.125 4.300781 -4.070312 C 4.300781 -4.042969 4.296875 -3.984375 4.296875 -3.890625 C 4.292969 -3.796875 4.285156 -3.699219 4.28125 -3.601562 C 4.273438 -3.5 4.269531 -3.421875 4.269531 -3.371094 C 4.269531 -3.304688 4.273438 -3.214844 4.273438 -3.105469 C 4.277344 -2.996094 4.28125 -2.890625 4.285156 -2.789062 C 4.289062 -2.691406 4.289062 -2.625 4.289062 -2.601562 C 4.289062 -2.554688 4.285156 -2.511719 4.273438 -2.480469 C 4.265625 -2.445312 4.238281 -2.429688 4.199219 -2.429688 C 4.101562 -2.429688 4.023438 -2.535156 3.96875 -2.75 C 3.929688 -2.902344 3.875 -3.015625 3.808594 -3.089844 C 3.742188 -3.164062 3.644531 -3.199219 3.511719 -3.199219 L 2.578125 -3.199219 C 2.464844 -3.199219 2.382812 -3.183594 2.324219 -3.15625 C 2.269531 -3.125 2.238281 -3.054688 2.238281 -2.941406 L 2.238281 -1.019531 C 2.238281 -0.765625 2.292969 -0.589844 2.398438 -0.496094 C 2.507812 -0.398438 2.671875 -0.351562 2.898438 -0.351562 L 3.640625 -0.351562 C 3.855469 -0.351562 4.03125 -0.363281 4.175781 -0.386719 C 4.320312 -0.410156 4.441406 -0.453125 4.550781 -0.519531 C 4.65625 -0.59375 4.75 -0.691406 4.835938 -0.808594 C 4.917969 -0.929688 5.011719 -1.089844 5.121094 -1.289062 C 5.140625 -1.328125 5.164062 -1.363281 5.191406 -1.390625 C 5.21875 -1.417969 5.246094 -1.425781 5.28125 -1.421875 C 5.3125 -1.414062 5.339844 -1.398438 5.359375 -1.375 C 5.378906 -1.351562 5.390625 -1.320312 5.390625 -1.28125 C 5.390625 -1.21875 5.375 -1.113281 5.339844 -0.964844 C 5.304688 -0.816406 5.265625 -0.660156 5.214844 -0.5 C 5.164062 -0.339844 5.121094 -0.214844 5.078125 -0.121094 C 5.058594 -0.0742188 5.042969 -0.0351562 5.023438 0 C 5.007812 0.0351562 4.980469 0.0507812 4.941406 0.0507812 C 4.621094 0.0507812 4.324219 0.046875 4.050781 0.0390625 C 3.777344 0.03125 3.515625 0.0273438 3.269531 0.0195312 C 3.023438 0.0117188 2.78125 0.0078125 2.546875 0 C 2.308594 -0.0078125 2.0625 -0.0117188 1.808594 -0.0117188 C 1.664062 -0.0117188 1.535156 -0.00390625 1.429688 0.00390625 C 1.324219 0.015625 1.214844 0.0234375 1.101562 0.0351562 C 0.988281 0.046875 0.839844 0.0507812 0.660156 0.0507812 Z "/>
</g>
<g id="glyph-0-2">
<path d="M 3.710938 0.0703125 C 3.644531 0.0703125 3.496094 0.0625 3.265625 0.0507812 C 3.035156 0.0351562 2.773438 0.0234375 2.476562 0.015625 C 2.179688 0.00390625 1.898438 0 1.628906 0 C 1.496094 0 1.386719 0.00390625 1.296875 0.0117188 C 1.207031 0.015625 1.109375 0.0234375 1.003906 0.0351562 C 0.902344 0.046875 0.761719 0.0507812 0.578125 0.0507812 C 0.492188 0.0507812 0.421875 0.0390625 0.371094 0.0195312 C 0.316406 0 0.289062 -0.0351562 0.289062 -0.078125 C 0.289062 -0.132812 0.316406 -0.167969 0.371094 -0.183594 C 0.421875 -0.203125 0.507812 -0.21875 0.621094 -0.238281 C 0.875 -0.285156 1.046875 -0.363281 1.144531 -0.46875 C 1.242188 -0.578125 1.289062 -0.75 1.289062 -0.988281 L 1.289062 -5.488281 C 1.289062 -5.730469 1.242188 -5.898438 1.144531 -6 C 1.046875 -6.101562 0.875 -6.171875 0.621094 -6.21875 C 0.507812 -6.238281 0.421875 -6.261719 0.371094 -6.285156 C 0.316406 -6.308594 0.289062 -6.347656 0.289062 -6.398438 C 0.289062 -6.445312 0.316406 -6.480469 0.371094 -6.5 C 0.421875 -6.519531 0.492188 -6.53125 0.578125 -6.53125 C 0.753906 -6.53125 0.890625 -6.527344 0.996094 -6.523438 C 1.097656 -6.519531 1.199219 -6.519531 1.300781 -6.515625 C 1.398438 -6.511719 1.53125 -6.511719 1.691406 -6.511719 C 1.796875 -6.511719 1.933594 -6.511719 2.09375 -6.519531 C 2.257812 -6.527344 2.429688 -6.535156 2.605469 -6.550781 C 2.78125 -6.5625 2.941406 -6.574219 3.085938 -6.578125 C 3.230469 -6.585938 3.332031 -6.589844 3.398438 -6.589844 C 4.078125 -6.589844 4.660156 -6.507812 5.140625 -6.34375 C 5.621094 -6.179688 6.011719 -5.953125 6.308594 -5.664062 C 6.609375 -5.375 6.832031 -5.039062 6.976562 -4.65625 C 7.117188 -4.273438 7.191406 -3.859375 7.191406 -3.421875 C 7.191406 -2.941406 7.101562 -2.488281 6.921875 -2.070312 C 6.742188 -1.648438 6.488281 -1.277344 6.171875 -0.953125 C 5.851562 -0.632812 5.480469 -0.378906 5.058594 -0.199219 C 4.640625 -0.0195312 4.191406 0.0703125 3.710938 0.0703125 Z M 3.589844 -0.28125 C 4.109375 -0.28125 4.570312 -0.40625 4.96875 -0.660156 C 5.371094 -0.914062 5.683594 -1.261719 5.90625 -1.710938 C 6.128906 -2.15625 6.238281 -2.671875 6.238281 -3.25 C 6.238281 -3.730469 6.160156 -4.160156 6 -4.535156 C 5.839844 -4.910156 5.625 -5.226562 5.359375 -5.484375 C 5.09375 -5.742188 4.792969 -5.9375 4.460938 -6.074219 C 4.128906 -6.210938 3.789062 -6.28125 3.449219 -6.28125 C 3.164062 -6.28125 2.917969 -6.273438 2.714844 -6.253906 C 2.511719 -6.238281 2.355469 -6.1875 2.25 -6.101562 C 2.144531 -6.015625 2.089844 -5.871094 2.089844 -5.671875 L 2.089844 -1.210938 C 2.089844 -0.945312 2.164062 -0.742188 2.308594 -0.609375 C 2.457031 -0.476562 2.644531 -0.386719 2.875 -0.34375 C 3.105469 -0.300781 3.34375 -0.28125 3.589844 -0.28125 Z "/>
</g>
<g id="glyph-0-3">
<rect x="0" y="0" width="0" height="0" mask="url(#mask-0)"/>
</g>
<g id="glyph-0-4">
<path d="M 0.269531 0.0507812 C 0.183594 0.0507812 0.113281 0.0390625 0.0585938 0.015625 C 0.0078125 -0.0078125 -0.0195312 -0.0390625 -0.0195312 -0.078125 C -0.0195312 -0.125 0.0078125 -0.167969 0.0664062 -0.203125 C 0.121094 -0.242188 0.203125 -0.277344 0.308594 -0.308594 C 0.484375 -0.363281 0.644531 -0.441406 0.789062 -0.550781 C 0.9375 -0.65625 1.0625 -0.832031 1.171875 -1.078125 C 1.355469 -1.507812 1.527344 -1.90625 1.683594 -2.28125 C 1.839844 -2.652344 1.988281 -3.019531 2.128906 -3.378906 C 2.269531 -3.738281 2.414062 -4.113281 2.566406 -4.503906 C 2.714844 -4.894531 2.875 -5.320312 3.039062 -5.78125 C 3.074219 -5.875 3.101562 -5.964844 3.128906 -6.058594 C 3.15625 -6.152344 3.171875 -6.253906 3.179688 -6.359375 C 3.238281 -6.378906 3.300781 -6.398438 3.359375 -6.421875 C 3.417969 -6.441406 3.480469 -6.46875 3.539062 -6.511719 C 3.601562 -6.550781 3.640625 -6.609375 3.664062 -6.691406 C 3.6875 -6.769531 3.710938 -6.824219 3.730469 -6.851562 C 3.738281 -6.855469 3.746094 -6.859375 3.753906 -6.859375 C 3.765625 -6.859375 3.773438 -6.851562 3.78125 -6.839844 C 3.792969 -6.8125 3.804688 -6.78125 3.816406 -6.738281 C 3.824219 -6.699219 3.835938 -6.660156 3.851562 -6.621094 C 4.011719 -6.113281 4.175781 -5.597656 4.351562 -5.070312 C 4.523438 -4.542969 4.691406 -4.035156 4.855469 -3.546875 C 5.019531 -3.054688 5.167969 -2.613281 5.304688 -2.226562 C 5.441406 -1.835938 5.550781 -1.519531 5.628906 -1.28125 C 5.722656 -1.015625 5.824219 -0.8125 5.929688 -0.679688 C 6.035156 -0.546875 6.148438 -0.453125 6.265625 -0.398438 C 6.382812 -0.347656 6.507812 -0.308594 6.640625 -0.28125 C 6.753906 -0.261719 6.835938 -0.226562 6.890625 -0.183594 C 6.945312 -0.140625 6.96875 -0.0976562 6.96875 -0.0507812 C 6.96875 -0.0117188 6.941406 0.015625 6.890625 0.03125 C 6.835938 0.0429688 6.765625 0.0507812 6.679688 0.0507812 C 6.585938 0.0507812 6.460938 0.046875 6.300781 0.0351562 C 6.140625 0.0234375 5.96875 0.015625 5.789062 0.00390625 C 5.609375 -0.00390625 5.441406 -0.0117188 5.289062 -0.0117188 C 5.164062 -0.0117188 5.035156 -0.0117188 4.898438 -0.0117188 C 4.765625 -0.0117188 4.644531 -0.0078125 4.53125 -0.00390625 C 4.417969 0 4.320312 0 4.238281 0 C 4.152344 0 4.082031 -0.0117188 4.03125 -0.03125 C 3.976562 -0.0507812 3.949219 -0.078125 3.949219 -0.121094 C 3.949219 -0.167969 3.984375 -0.207031 4.050781 -0.238281 C 4.117188 -0.273438 4.191406 -0.296875 4.28125 -0.308594 C 4.5 -0.34375 4.65625 -0.398438 4.75 -0.480469 C 4.84375 -0.558594 4.890625 -0.652344 4.890625 -0.761719 C 4.890625 -0.859375 4.867188 -1.003906 4.824219 -1.195312 C 4.78125 -1.386719 4.730469 -1.589844 4.671875 -1.804688 C 4.609375 -2.023438 4.554688 -2.214844 4.5 -2.378906 C 4.488281 -2.433594 4.460938 -2.464844 4.425781 -2.476562 C 4.386719 -2.484375 4.324219 -2.488281 4.230469 -2.488281 L 2.339844 -2.488281 C 2.3125 -2.488281 2.285156 -2.476562 2.253906 -2.453125 C 2.226562 -2.429688 2.195312 -2.382812 2.171875 -2.308594 C 2.152344 -2.242188 2.117188 -2.136719 2.070312 -1.996094 C 2.023438 -1.851562 1.976562 -1.699219 1.929688 -1.539062 C 1.882812 -1.378906 1.84375 -1.238281 1.808594 -1.109375 C 1.777344 -0.984375 1.761719 -0.902344 1.761719 -0.871094 C 1.761719 -0.722656 1.816406 -0.601562 1.929688 -0.503906 C 2.042969 -0.40625 2.179688 -0.339844 2.339844 -0.300781 C 2.558594 -0.242188 2.671875 -0.171875 2.671875 -0.101562 C 2.671875 -0.0585938 2.644531 -0.03125 2.589844 -0.015625 C 2.535156 0 2.464844 0.0117188 2.378906 0.0117188 C 2.292969 0.0117188 2.167969 0.0078125 2 0 C 1.832031 -0.0078125 1.65625 -0.0117188 1.46875 -0.0117188 C 1.25 -0.0117188 1.035156 0 0.828125 0.0195312 C 0.621094 0.0390625 0.4375 0.0507812 0.269531 0.0507812 Z M 2.609375 -2.820312 L 4.160156 -2.820312 C 4.253906 -2.820312 4.300781 -2.835938 4.300781 -2.871094 C 4.300781 -2.882812 4.296875 -2.898438 4.296875 -2.914062 C 4.292969 -2.929688 4.285156 -2.949219 4.28125 -2.96875 L 3.5 -5.410156 C 3.460938 -5.53125 3.429688 -5.589844 3.410156 -5.589844 C 3.398438 -5.589844 3.371094 -5.535156 3.328125 -5.421875 L 2.421875 -2.96875 C 2.40625 -2.929688 2.398438 -2.902344 2.398438 -2.890625 C 2.398438 -2.855469 2.417969 -2.835938 2.453125 -2.828125 C 2.492188 -2.824219 2.542969 -2.820312 2.609375 -2.820312 Z "/>
</g>
<g id="glyph-0-5">
<path d="M 0.601562 0.0507812 C 0.515625 0.0507812 0.441406 0.0429688 0.390625 0.0234375 C 0.335938 0.0078125 0.308594 -0.0195312 0.308594 -0.0585938 C 0.308594 -0.140625 0.421875 -0.199219 0.640625 -0.238281 C 0.894531 -0.285156 1.066406 -0.363281 1.164062 -0.476562 C 1.261719 -0.585938 1.308594 -0.761719 1.308594 -1.011719 L 1.308594 -5.511719 C 1.308594 -5.742188 1.261719 -5.910156 1.164062 -6.003906 C 1.066406 -6.101562 0.894531 -6.171875 0.640625 -6.21875 C 0.421875 -6.257812 0.308594 -6.328125 0.308594 -6.421875 C 0.308594 -6.460938 0.335938 -6.488281 0.390625 -6.503906 C 0.445312 -6.519531 0.511719 -6.53125 0.601562 -6.53125 C 0.78125 -6.53125 0.925781 -6.527344 1.035156 -6.523438 C 1.144531 -6.519531 1.25 -6.519531 1.351562 -6.515625 C 1.449219 -6.511719 1.574219 -6.511719 1.71875 -6.511719 C 1.847656 -6.511719 1.949219 -6.511719 2.023438 -6.515625 C 2.101562 -6.519531 2.1875 -6.523438 2.28125 -6.523438 C 2.375 -6.527344 2.511719 -6.53125 2.691406 -6.53125 C 2.777344 -6.53125 2.847656 -6.523438 2.898438 -6.503906 C 2.953125 -6.488281 2.980469 -6.460938 2.980469 -6.421875 C 2.980469 -6.375 2.953125 -6.332031 2.898438 -6.300781 C 2.847656 -6.265625 2.761719 -6.238281 2.648438 -6.21875 C 2.402344 -6.171875 2.25 -6.089844 2.195312 -5.976562 C 2.136719 -5.859375 2.109375 -5.703125 2.109375 -5.511719 L 2.109375 -3.640625 C 2.109375 -3.613281 2.113281 -3.574219 2.113281 -3.523438 C 2.117188 -3.472656 2.132812 -3.449219 2.160156 -3.449219 C 2.195312 -3.449219 2.238281 -3.46875 2.296875 -3.511719 C 2.351562 -3.550781 2.398438 -3.589844 2.429688 -3.628906 L 4.429688 -5.671875 C 4.484375 -5.722656 4.523438 -5.773438 4.546875 -5.824219 C 4.570312 -5.875 4.578125 -5.921875 4.578125 -5.96875 C 4.578125 -6.089844 4.515625 -6.167969 4.390625 -6.199219 C 4.277344 -6.234375 4.195312 -6.261719 4.148438 -6.289062 C 4.101562 -6.316406 4.078125 -6.351562 4.078125 -6.398438 C 4.078125 -6.441406 4.105469 -6.46875 4.160156 -6.484375 C 4.214844 -6.5 4.285156 -6.511719 4.371094 -6.511719 L 4.910156 -6.511719 C 5.101562 -6.511719 5.316406 -6.511719 5.550781 -6.519531 C 5.785156 -6.527344 5.996094 -6.535156 6.183594 -6.539062 C 6.375 -6.546875 6.488281 -6.550781 6.53125 -6.550781 C 6.597656 -6.550781 6.648438 -6.539062 6.691406 -6.519531 C 6.730469 -6.5 6.75 -6.472656 6.75 -6.441406 C 6.75 -6.394531 6.722656 -6.351562 6.671875 -6.320312 C 6.617188 -6.285156 6.535156 -6.261719 6.421875 -6.238281 C 6.175781 -6.191406 5.917969 -6.121094 5.648438 -6.019531 C 5.382812 -5.917969 5.132812 -5.773438 4.898438 -5.578125 C 4.660156 -5.378906 4.4375 -5.183594 4.234375 -4.996094 C 4.03125 -4.804688 3.828125 -4.609375 3.628906 -4.40625 C 3.429688 -4.203125 3.214844 -3.96875 2.980469 -3.710938 C 2.941406 -3.671875 2.957031 -3.609375 3.03125 -3.53125 L 5.449219 -0.949219 C 5.597656 -0.789062 5.714844 -0.667969 5.804688 -0.578125 C 5.894531 -0.492188 5.996094 -0.425781 6.105469 -0.375 C 6.214844 -0.324219 6.363281 -0.28125 6.550781 -0.238281 C 6.664062 -0.210938 6.746094 -0.1875 6.800781 -0.164062 C 6.855469 -0.140625 6.878906 -0.105469 6.878906 -0.0585938 C 6.878906 -0.0195312 6.851562 0.0078125 6.800781 0.0234375 C 6.746094 0.0429688 6.675781 0.0507812 6.589844 0.0507812 C 6.398438 0.0507812 6.230469 0.046875 6.089844 0.0351562 C 5.949219 0.0234375 5.8125 0.015625 5.679688 0.0117188 C 5.546875 0.00390625 5.386719 0 5.199219 0 C 5.074219 0 4.964844 0 4.871094 0.00390625 C 4.777344 0.0078125 4.617188 0.0117188 4.390625 0.0117188 C 4.304688 0.0117188 4.234375 0 4.179688 -0.015625 C 4.125 -0.03125 4.101562 -0.0585938 4.101562 -0.101562 C 4.101562 -0.175781 4.191406 -0.230469 4.371094 -0.269531 C 4.558594 -0.316406 4.648438 -0.382812 4.648438 -0.46875 C 4.648438 -0.507812 4.636719 -0.550781 4.605469 -0.589844 C 4.574219 -0.628906 4.539062 -0.671875 4.5 -0.71875 L 2.378906 -3.058594 C 2.339844 -3.097656 2.296875 -3.136719 2.253906 -3.175781 C 2.210938 -3.210938 2.175781 -3.230469 2.148438 -3.230469 C 2.121094 -3.230469 2.109375 -3.203125 2.109375 -3.148438 C 2.109375 -3.097656 2.109375 -3.054688 2.109375 -3.019531 C 2.109375 -2.707031 2.113281 -2.410156 2.125 -2.125 C 2.136719 -1.839844 2.148438 -1.5 2.160156 -1.101562 C 2.167969 -0.960938 2.1875 -0.828125 2.226562 -0.710938 C 2.261719 -0.589844 2.324219 -0.488281 2.414062 -0.410156 C 2.503906 -0.328125 2.632812 -0.273438 2.800781 -0.238281 C 2.914062 -0.21875 2.996094 -0.195312 3.050781 -0.171875 C 3.105469 -0.144531 3.128906 -0.105469 3.128906 -0.0585938 C 3.128906 -0.0195312 3.101562 0.0078125 3.050781 0.0234375 C 2.996094 0.0429688 2.925781 0.0507812 2.839844 0.0507812 C 2.660156 0.0507812 2.523438 0.0429688 2.425781 0.03125 C 2.328125 0.015625 2.242188 0.00390625 2.164062 -0.00390625 C 2.089844 -0.015625 1.988281 -0.0195312 1.859375 -0.0195312 C 1.699219 -0.0195312 1.558594 -0.015625 1.433594 -0.00390625 C 1.3125 0.00390625 1.1875 0.015625 1.058594 0.03125 C 0.933594 0.0429688 0.78125 0.0507812 0.601562 0.0507812 Z "/>
</g>
</g>
<image id="source-44" x="0" y="0" width="0" height="0"/>
<mask id="mask-0">
<use xlink:href="#source-44"/>
</mask>
</defs>
<g fill="rgb(85.098039%, 46.666667%, 34.117647%)" fill-opacity="1">
<use xlink:href="#glyph-0-0" x="30" y="30.070312"/>
<use xlink:href="#glyph-0-1" x="35" y="30.070312"/>
<use xlink:href="#glyph-0-1" x="41" y="30.070312"/>
<use xlink:href="#glyph-0-2" x="47" y="30.070312"/>
<use xlink:href="#glyph-0-3" x="55" y="30.070312"/>
<use xlink:href="#glyph-0-4" x="57" y="30.070312"/>
<use xlink:href="#glyph-0-0" x="64" y="30.070312"/>
<use xlink:href="#glyph-0-5" x="69" y="30.070312"/>
</g>
</svg>
