<?xml version="1.0" encoding="UTF-8"?>
<svg xmlns="http://www.w3.org/2000/svg" xmlns:xlink="http://www.w3.org/1999/xlink" width="3840" height="2160" viewBox="0 0 3840 2160">
<defs>
<g>
<g id="glyph-0-0">
<path d="M 4.386719 0.160156 C 3.605469 0.160156 2.921875 0.0429688 2.332031 -0.191406 C 1.746094 -0.429688 1.289062 -0.761719 0.960938 -1.191406 C 0.632812 -1.625 0.464844 -2.128906 0.464844 -2.707031 C 0.464844 -3.285156 0.628906 -3.777344 0.953125 -4.179688 C 1.277344 -4.585938 1.734375 -4.890625 2.320312 -5.101562 C 2.90625 -5.308594 3.59375 -5.414062 4.386719 -5.414062 C 5.1875 -5.414062 5.882812 -5.308594 6.472656 -5.101562 C 7.0625 -4.890625 7.523438 -4.585938 7.847656 -4.179688 C 8.171875 -3.777344 8.332031 -3.285156 8.332031 -2.707031 C 8.332031 -2.128906 8.167969 -1.625 7.839844 -1.191406 C 7.511719 -0.761719 7.050781 -0.429688 6.460938 -0.191406 C 5.867188 0.0429688 5.175781 0.160156 4.386719 0.160156 Z M 4.386719 -1.425781 C 4.929688 -1.425781 5.359375 -1.546875 5.671875 -1.785156 C 5.988281 -2.027344 6.148438 -2.355469 6.148438 -2.773438 C 6.148438 -3.191406 5.988281 -3.519531 5.671875 -3.753906 C 5.355469 -3.988281 4.929688 -4.105469 4.386719 -4.105469 C 3.851562 -4.105469 3.429688 -3.988281 3.121094 -3.753906 C 2.808594 -3.519531 2.652344 -3.191406 2.652344 -2.773438 C 2.652344 -2.355469 2.808594 -2.027344 3.121094 -1.785156 C 3.429688 -1.546875 3.851562 -1.425781 4.386719 -1.425781 Z M 4.386719 -5.585938 C 4.839844 -5.585938 5.199219 -5.6875 5.460938 -5.894531 C 5.722656 -6.097656 5.851562 -6.378906 5.851562 -6.734375 C 5.851562 -7.105469 5.71875 -7.394531 5.445312 -7.601562 C 5.175781 -7.804688 4.820312 -7.90625 4.386719 -7.90625 C 3.960938 -7.90625 3.613281 -7.804688 3.347656 -7.601562 C 3.082031 -7.394531 2.945312 -7.105469 2.945312 -6.734375 C 2.945312 -6.378906 3.074219 -6.097656 3.332031 -5.894531 C 3.589844 -5.6875 3.941406 -5.585938 4.386719 -5.585938 Z M 4.386719 -4.320312 C 3.667969 -4.320312 3.039062 -4.417969 2.5 -4.613281 C 1.960938 -4.808594 1.542969 -5.09375 1.246094 -5.472656 C 0.949219 -5.851562 0.800781 -6.300781 0.800781 -6.828125 C 0.800781 -7.378906 0.949219 -7.851562 1.253906 -8.246094 C 1.554688 -8.640625 1.976562 -8.949219 2.519531 -9.167969 C 3.0625 -9.382812 3.683594 -9.492188 4.386719 -9.492188 C 5.105469 -9.492188 5.734375 -9.382812 6.273438 -9.167969 C 6.8125 -8.949219 7.234375 -8.640625 7.539062 -8.246094 C 7.847656 -7.851562 8 -7.378906 8 -6.828125 C 8 -6.300781 7.851562 -5.851562 7.554688 -5.472656 C 7.257812 -5.09375 6.835938 -4.808594 6.292969 -4.613281 C 5.75 -4.417969 5.117188 -4.320312 4.386719 -4.320312 Z "/>
</g>
<g id="glyph-0-1">
<path d="M 1.746094 0.105469 C 1.390625 0.105469 1.085938 -0.015625 0.832031 -0.261719 C 0.578125 -0.503906 0.453125 -0.816406 0.453125 -1.199219 C 0.453125 -1.582031 0.578125 -1.890625 0.832031 -2.125 C 1.085938 -2.363281 1.390625 -2.480469 1.746094 -2.480469 C 2.109375 -2.480469 2.417969 -2.363281 2.667969 -2.125 C 2.914062 -1.890625 3.039062 -1.582031 3.039062 -1.199219 C 3.039062 -0.816406 2.914062 -0.503906 2.667969 -0.261719 C 2.417969 -0.015625 2.109375 0.105469 1.746094 0.105469 Z "/>
</g>
<g id="glyph-0-2">
<path d="M 0.414062 -1.960938 L 0.414062 -3.414062 L 4.8125 -9.332031 L 7.078125 -9.332031 L 2.773438 -3.414062 L 1.71875 -3.71875 L 9.066406 -3.71875 L 9.066406 -1.960938 Z M 5.441406 0 L 5.441406 -1.960938 L 5.507812 -3.71875 L 5.507812 -5.464844 L 7.546875 -5.464844 L 7.546875 0 Z "/>
</g>
<g id="glyph-0-3">
<path d="M 1.746094 -4.679688 C 1.390625 -4.679688 1.085938 -4.800781 0.832031 -5.046875 C 0.578125 -5.292969 0.453125 -5.605469 0.453125 -5.988281 C 0.453125 -6.371094 0.578125 -6.675781 0.832031 -6.914062 C 1.085938 -7.148438 1.390625 -7.265625 1.746094 -7.265625 C 2.109375 -7.265625 2.417969 -7.148438 2.667969 -6.914062 C 2.914062 -6.679688 3.039062 -6.367188 3.039062 -5.988281 C 3.039062 -5.605469 2.914062 -5.289062 2.667969 -5.046875 C 2.417969 -4.800781 2.109375 -4.679688 1.746094 -4.679688 Z M 1.746094 0.105469 C 1.390625 0.105469 1.085938 -0.015625 0.832031 -0.261719 C 0.578125 -0.503906 0.453125 -0.816406 0.453125 -1.199219 C 0.453125 -1.582031 0.578125 -1.890625 0.832031 -2.125 C 1.085938 -2.363281 1.390625 -2.480469 1.746094 -2.480469 C 2.109375 -2.480469 2.417969 -2.363281 2.667969 -2.125 C 2.914062 -1.890625 3.039062 -1.582031 3.039062 -1.199219 C 3.039062 -0.816406 2.914062 -0.503906 2.667969 -0.261719 C 2.417969 -0.015625 2.109375 0.105469 1.746094 0.105469 Z "/>
</g>
<g id="glyph-0-4">
<path d="M 1.960938 0 L 1.960938 -8.53125 L 2.894531 -7.601562 L 0.09375 -7.601562 L 0.09375 -9.332031 L 4.121094 -9.332031 L 4.121094 0 Z "/>
</g>
</g>
</defs>
<g fill="rgb(54.509804%, 22.745098%, 5.882353%)" fill-opacity="1">
<use xlink:href="#glyph-0-0" x="30" y="32.90625"/>
<use xlink:href="#glyph-0-1" x="39" y="32.90625"/>
<use xlink:href="#glyph-0-2" x="42" y="32.90625"/>
<use xlink:href="#glyph-0-3" x="51" y="32.90625"/>
<use xlink:href="#glyph-0-4" x="54" y="32.90625"/>
</g>
</svg>
