<?xml version="1.0" encoding="UTF-8"?>
<svg xmlns="http://www.w3.org/2000/svg" xmlns:xlink="http://www.w3.org/1999/xlink" width="3840" height="2160" viewBox="0 0 3840 2160">
<defs>
<g>
<g id="glyph-0-0">
<path d="M 3.84375 0.171875 C 3.140625 0.171875 2.441406 0.078125 1.746094 -0.109375 C 1.054688 -0.296875 0.46875 -0.5625 -0.015625 -0.910156 L 0.894531 -2.699219 C 1.28125 -2.421875 1.726562 -2.199219 2.238281 -2.035156 C 2.75 -1.871094 3.265625 -1.792969 3.785156 -1.792969 C 4.371094 -1.792969 4.835938 -1.90625 5.171875 -2.136719 C 5.507812 -2.367188 5.675781 -2.6875 5.675781 -3.089844 C 5.675781 -3.476562 5.527344 -3.78125 5.230469 -4 C 4.929688 -4.222656 4.449219 -4.332031 3.785156 -4.332031 L 2.714844 -4.332031 L 2.714844 -5.878906 L 5.53125 -9.070312 L 5.792969 -8.234375 L 0.492188 -8.234375 L 0.492188 -10.109375 L 7.570312 -10.109375 L 7.570312 -8.59375 L 4.765625 -5.402344 L 3.582031 -6.082031 L 4.261719 -6.082031 C 5.503906 -6.082031 6.441406 -5.800781 7.078125 -5.242188 C 7.714844 -4.683594 8.03125 -3.96875 8.03125 -3.089844 C 8.03125 -2.523438 7.882812 -1.992188 7.582031 -1.496094 C 7.285156 -1 6.828125 -0.597656 6.210938 -0.289062 C 5.59375 0.0195312 4.804688 0.171875 3.84375 0.171875 Z "/>
</g>
</g>
</defs>
<g fill="rgb(23.921569%, 22.352941%, 16.078431%)" fill-opacity="1">
<use xlink:href="#glyph-0-0" x="30" y="33.982422"/>
</g>
</svg>
