<?xml version="1.0" encoding="UTF-8"?>
<svg xmlns="http://www.w3.org/2000/svg" xmlns:xlink="http://www.w3.org/1999/xlink" width="854" height="480" viewBox="0 0 854 480">
<defs>
<g>
<g id="glyph-0-0">
<path d="M 0.511719 0.0351562 C 0.441406 0.0351562 0.386719 0.0234375 0.34375 0.00390625 C 0.300781 -0.015625 0.28125 -0.046875 0.28125 -0.09375 C 0.28125 -0.15625 0.304688 -0.195312 0.351562 -0.214844 C 0.398438 -0.234375 0.460938 -0.257812 0.546875 -0.28125 C 0.664062 -0.3125 0.777344 -0.355469 0.886719 -0.410156 C 0.996094 -0.464844 1.050781 -0.566406 1.050781 -0.722656 L 1.050781 -3.230469 C 1.050781 -3.441406 1.027344 -3.621094 0.984375 -3.769531 C 0.941406 -3.917969 0.820312 -4.015625 0.617188 -4.070312 C 0.585938 -4.085938 0.558594 -4.105469 0.535156 -4.125 C 0.511719 -4.144531 0.5 -4.175781 0.5 -4.222656 C 0.5 -4.308594 0.535156 -4.355469 0.605469 -4.363281 C 0.878906 -4.433594 1.101562 -4.519531 1.273438 -4.621094 C 1.445312 -4.722656 1.609375 -4.835938 1.773438 -4.957031 C 1.796875 -4.972656 1.816406 -4.988281 1.835938 -5 C 1.855469 -5.011719 1.878906 -5.015625 1.902344 -5.015625 C 1.917969 -5.015625 1.929688 -5.007812 1.941406 -4.992188 C 1.953125 -4.976562 1.960938 -4.957031 1.960938 -4.933594 C 1.960938 -4.878906 1.949219 -4.769531 1.929688 -4.601562 C 1.910156 -4.433594 1.902344 -4.296875 1.902344 -4.1875 C 1.902344 -4.15625 1.902344 -4.128906 1.90625 -4.101562 C 1.910156 -4.074219 1.917969 -4.054688 1.925781 -4.046875 C 2.199219 -4.304688 2.488281 -4.5 2.792969 -4.632812 C 3.101562 -4.765625 3.4375 -4.832031 3.804688 -4.832031 C 4.183594 -4.832031 4.5 -4.675781 4.75 -4.363281 C 4.996094 -4.050781 5.121094 -3.667969 5.121094 -3.207031 L 5.121094 -0.722656 C 5.121094 -0.566406 5.175781 -0.464844 5.285156 -0.414062 C 5.394531 -0.363281 5.507812 -0.320312 5.625 -0.28125 C 5.6875 -0.257812 5.746094 -0.230469 5.804688 -0.203125 C 5.863281 -0.175781 5.890625 -0.132812 5.890625 -0.0703125 C 5.890625 -0.0234375 5.863281 0.00390625 5.808594 0.015625 C 5.753906 0.0273438 5.707031 0.0351562 5.660156 0.0351562 C 5.503906 0.0351562 5.382812 0.0273438 5.296875 0.015625 C 5.210938 0.00390625 5.128906 -0.00390625 5.050781 -0.0117188 C 4.972656 -0.0195312 4.863281 -0.0234375 4.726562 -0.0234375 C 4.59375 -0.0234375 4.484375 -0.0195312 4.398438 -0.0117188 C 4.3125 -0.00390625 4.226562 0.00390625 4.136719 0.015625 C 4.046875 0.0273438 3.925781 0.0351562 3.769531 0.0351562 C 3.730469 0.0351562 3.679688 0.0273438 3.621094 0.015625 C 3.5625 0.00390625 3.535156 -0.0234375 3.535156 -0.0703125 C 3.535156 -0.132812 3.5625 -0.175781 3.621094 -0.203125 C 3.679688 -0.230469 3.742188 -0.257812 3.804688 -0.28125 C 3.921875 -0.320312 4.03125 -0.363281 4.140625 -0.414062 C 4.25 -0.464844 4.304688 -0.566406 4.304688 -0.722656 L 4.304688 -3.171875 C 4.304688 -3.515625 4.210938 -3.78125 4.019531 -3.972656 C 3.828125 -4.164062 3.574219 -4.261719 3.253906 -4.269531 C 2.976562 -4.269531 2.730469 -4.226562 2.519531 -4.136719 C 2.308594 -4.046875 2.125 -3.9375 1.960938 -3.804688 C 1.929688 -3.773438 1.90625 -3.730469 1.890625 -3.679688 C 1.875 -3.628906 1.867188 -3.582031 1.867188 -3.535156 L 1.867188 -0.722656 C 1.867188 -0.566406 1.921875 -0.460938 2.03125 -0.410156 C 2.140625 -0.355469 2.25 -0.3125 2.367188 -0.28125 C 2.546875 -0.234375 2.636719 -0.171875 2.636719 -0.09375 C 2.636719 -0.046875 2.617188 -0.0117188 2.578125 0.00390625 C 2.539062 0.0234375 2.480469 0.0351562 2.402344 0.0351562 C 2.246094 0.0351562 2.125 0.0273438 2.035156 0.015625 C 1.945312 0.00390625 1.863281 -0.00390625 1.785156 -0.0117188 C 1.707031 -0.0195312 1.597656 -0.0234375 1.457031 -0.0234375 C 1.324219 -0.0234375 1.21875 -0.0195312 1.136719 -0.0117188 C 1.054688 -0.00390625 0.96875 0.00390625 0.878906 0.015625 C 0.789062 0.0273438 0.667969 0.0351562 0.511719 0.0351562 Z "/>
</g>
<g id="glyph-0-1">
<path d="M 2.484375 0.175781 C 2.058594 0.175781 1.683594 0.0703125 1.363281 -0.140625 C 1.046875 -0.351562 0.796875 -0.648438 0.617188 -1.03125 C 0.4375 -1.417969 0.351562 -1.863281 0.351562 -2.367188 C 0.351562 -2.820312 0.453125 -3.230469 0.660156 -3.597656 C 0.867188 -3.96875 1.140625 -4.265625 1.480469 -4.492188 C 1.824219 -4.71875 2.199219 -4.832031 2.601562 -4.832031 C 2.914062 -4.832031 3.1875 -4.769531 3.429688 -4.644531 C 3.671875 -4.519531 3.859375 -4.347656 3.996094 -4.125 C 4.132812 -3.902344 4.199219 -3.648438 4.199219 -3.359375 C 4.199219 -3.117188 4.082031 -3 3.851562 -3 L 1.386719 -3 C 1.277344 -3 1.203125 -2.96875 1.160156 -2.910156 C 1.117188 -2.851562 1.097656 -2.738281 1.097656 -2.566406 C 1.097656 -2.191406 1.179688 -1.851562 1.339844 -1.546875 C 1.503906 -1.238281 1.722656 -0.992188 1.996094 -0.8125 C 2.269531 -0.628906 2.566406 -0.535156 2.894531 -0.535156 C 3.128906 -0.535156 3.339844 -0.582031 3.527344 -0.671875 C 3.71875 -0.761719 3.890625 -0.890625 4.035156 -1.0625 C 4.066406 -1.101562 4.089844 -1.125 4.105469 -1.136719 C 4.121094 -1.148438 4.140625 -1.15625 4.164062 -1.15625 C 4.226562 -1.15625 4.257812 -1.117188 4.257812 -1.039062 C 4.257812 -0.890625 4.1875 -0.726562 4.046875 -0.546875 C 3.929688 -0.398438 3.792969 -0.273438 3.628906 -0.164062 C 3.464844 -0.0546875 3.285156 0.0273438 3.089844 0.0859375 C 2.898438 0.144531 2.695312 0.175781 2.484375 0.175781 Z M 1.410156 -3.359375 L 2.472656 -3.359375 C 2.660156 -3.359375 2.820312 -3.363281 2.953125 -3.371094 C 3.085938 -3.378906 3.210938 -3.394531 3.335938 -3.417969 C 3.375 -3.425781 3.402344 -3.453125 3.414062 -3.496094 C 3.425781 -3.539062 3.429688 -3.597656 3.429688 -3.675781 C 3.429688 -3.902344 3.332031 -4.09375 3.132812 -4.253906 C 2.933594 -4.414062 2.699219 -4.492188 2.425781 -4.492188 C 2.246094 -4.492188 2.070312 -4.4375 1.890625 -4.335938 C 1.710938 -4.230469 1.5625 -4.097656 1.445312 -3.945312 C 1.328125 -3.789062 1.273438 -3.632812 1.273438 -3.476562 C 1.273438 -3.398438 1.320312 -3.359375 1.410156 -3.359375 Z "/>
</g>
<g id="glyph-0-2">
<path d="M 2.484375 0.175781 C 2.097656 0.175781 1.746094 0.0742188 1.429688 -0.121094 C 1.113281 -0.320312 0.867188 -0.59375 0.683594 -0.9375 C 0.5 -1.285156 0.410156 -1.671875 0.410156 -2.101562 C 0.410156 -2.605469 0.519531 -3.066406 0.742188 -3.476562 C 0.964844 -3.890625 1.261719 -4.21875 1.632812 -4.460938 C 2.007812 -4.707031 2.417969 -4.832031 2.871094 -4.832031 C 3.375 -4.832031 3.820312 -4.695312 4.199219 -4.421875 C 4.292969 -4.351562 4.339844 -4.277344 4.339844 -4.199219 C 4.339844 -4.136719 4.3125 -4.066406 4.257812 -3.988281 C 4.203125 -3.910156 4.136719 -3.847656 4.058594 -3.796875 C 3.980469 -3.746094 3.910156 -3.722656 3.839844 -3.722656 C 3.800781 -3.722656 3.761719 -3.734375 3.722656 -3.761719 C 3.683594 -3.789062 3.640625 -3.820312 3.59375 -3.851562 C 3.421875 -3.984375 3.230469 -4.105469 3.023438 -4.222656 C 2.8125 -4.339844 2.636719 -4.398438 2.496094 -4.398438 C 2.117188 -4.398438 1.804688 -4.222656 1.570312 -3.867188 C 1.332031 -3.511719 1.214844 -3.050781 1.214844 -2.472656 C 1.214844 -2.109375 1.292969 -1.777344 1.453125 -1.480469 C 1.613281 -1.1875 1.824219 -0.953125 2.09375 -0.78125 C 2.363281 -0.609375 2.660156 -0.523438 2.988281 -0.523438 C 3.210938 -0.523438 3.40625 -0.5625 3.570312 -0.636719 C 3.734375 -0.710938 3.910156 -0.839844 4.09375 -1.027344 C 4.109375 -1.042969 4.128906 -1.054688 4.152344 -1.066406 C 4.175781 -1.078125 4.195312 -1.085938 4.210938 -1.085938 C 4.296875 -1.085938 4.339844 -1.03125 4.339844 -0.921875 C 4.339844 -0.875 4.328125 -0.824219 4.300781 -0.765625 C 4.273438 -0.707031 4.226562 -0.636719 4.164062 -0.558594 C 4.039062 -0.402344 3.894531 -0.269531 3.722656 -0.15625 C 3.550781 -0.0429688 3.363281 0.0390625 3.15625 0.09375 C 2.949219 0.148438 2.726562 0.175781 2.484375 0.175781 Z "/>
</g>
<g id="glyph-0-3">
<path d="M 1.679688 0.164062 C 1.4375 0.164062 1.214844 0.125 1.003906 0.0507812 C 0.792969 -0.0234375 0.613281 -0.125 0.464844 -0.257812 C 0.425781 -0.34375 0.398438 -0.484375 0.378906 -0.6875 C 0.359375 -0.890625 0.347656 -1.058594 0.339844 -1.191406 C 0.339844 -1.261719 0.390625 -1.296875 0.488281 -1.296875 C 0.519531 -1.296875 0.550781 -1.289062 0.578125 -1.277344 C 0.605469 -1.265625 0.621094 -1.246094 0.628906 -1.214844 C 0.730469 -0.832031 0.890625 -0.558594 1.113281 -0.398438 C 1.335938 -0.234375 1.558594 -0.152344 1.785156 -0.152344 C 2.011719 -0.152344 2.203125 -0.226562 2.363281 -0.378906 C 2.523438 -0.53125 2.601562 -0.71875 2.601562 -0.945312 C 2.601562 -1.15625 2.53125 -1.335938 2.390625 -1.488281 C 2.25 -1.640625 2.007812 -1.824219 1.65625 -2.042969 C 1.390625 -2.207031 1.179688 -2.359375 1.015625 -2.507812 C 0.851562 -2.65625 0.734375 -2.808594 0.660156 -2.964844 C 0.585938 -3.121094 0.546875 -3.292969 0.546875 -3.488281 C 0.546875 -3.738281 0.605469 -3.960938 0.722656 -4.164062 C 0.839844 -4.367188 1.015625 -4.527344 1.25 -4.648438 C 1.480469 -4.769531 1.773438 -4.832031 2.125 -4.832031 C 2.355469 -4.832031 2.550781 -4.808594 2.707031 -4.761719 C 2.863281 -4.714844 2.980469 -4.664062 3.058594 -4.609375 C 3.121094 -4.523438 3.171875 -4.390625 3.214844 -4.207031 C 3.257812 -4.023438 3.277344 -3.851562 3.277344 -3.6875 C 3.277344 -3.632812 3.238281 -3.605469 3.160156 -3.605469 C 3.113281 -3.605469 3.070312 -3.613281 3.027344 -3.632812 C 2.984375 -3.652344 2.957031 -3.679688 2.941406 -3.710938 C 2.839844 -3.96875 2.710938 -4.164062 2.5625 -4.300781 C 2.410156 -4.4375 2.21875 -4.503906 1.996094 -4.503906 C 1.800781 -4.503906 1.628906 -4.445312 1.476562 -4.328125 C 1.324219 -4.210938 1.25 -4.039062 1.25 -3.816406 C 1.25 -3.636719 1.304688 -3.476562 1.417969 -3.335938 C 1.53125 -3.195312 1.742188 -3.039062 2.054688 -2.859375 C 2.503906 -2.601562 2.839844 -2.363281 3.0625 -2.140625 C 3.285156 -1.917969 3.394531 -1.625 3.394531 -1.261719 C 3.394531 -0.839844 3.234375 -0.496094 2.917969 -0.234375 C 2.597656 0.03125 2.1875 0.164062 1.679688 0.164062 Z "/>
</g>
<g id="glyph-0-4">
<path d="M 1.363281 0.164062 C 1.222656 0.164062 1.082031 0.109375 0.9375 0 C 0.792969 -0.109375 0.675781 -0.242188 0.578125 -0.398438 C 0.480469 -0.554688 0.433594 -0.699219 0.433594 -0.839844 C 0.433594 -1.089844 0.496094 -1.285156 0.628906 -1.421875 C 0.761719 -1.5625 0.972656 -1.691406 1.261719 -1.808594 L 2.449219 -2.296875 C 2.605469 -2.359375 2.695312 -2.414062 2.722656 -2.460938 C 2.75 -2.507812 2.769531 -2.609375 2.777344 -2.765625 L 2.800781 -3.511719 C 2.808594 -3.714844 2.75 -3.890625 2.632812 -4.035156 C 2.511719 -4.183594 2.335938 -4.257812 2.113281 -4.257812 C 1.996094 -4.257812 1.878906 -4.238281 1.761719 -4.199219 C 1.644531 -4.160156 1.546875 -4.109375 1.46875 -4.046875 C 1.421875 -4.015625 1.390625 -3.96875 1.375 -3.910156 C 1.359375 -3.847656 1.351562 -3.78125 1.351562 -3.710938 C 1.351562 -3.679688 1.355469 -3.644531 1.359375 -3.605469 C 1.363281 -3.566406 1.363281 -3.53125 1.363281 -3.5 C 1.363281 -3.460938 1.316406 -3.410156 1.21875 -3.34375 C 1.121094 -3.277344 1.011719 -3.21875 0.890625 -3.167969 C 0.769531 -3.117188 0.671875 -3.089844 0.59375 -3.089844 C 0.554688 -3.089844 0.523438 -3.101562 0.5 -3.121094 C 0.476562 -3.140625 0.464844 -3.164062 0.464844 -3.195312 C 0.464844 -3.320312 0.507812 -3.457031 0.589844 -3.597656 C 0.671875 -3.742188 0.785156 -3.878906 0.933594 -4 C 1.113281 -4.164062 1.308594 -4.308594 1.515625 -4.433594 C 1.726562 -4.558594 1.933594 -4.65625 2.136719 -4.726562 C 2.335938 -4.796875 2.515625 -4.832031 2.671875 -4.832031 C 2.953125 -4.832031 3.183594 -4.730469 3.367188 -4.53125 C 3.550781 -4.332031 3.636719 -4.085938 3.628906 -3.792969 L 3.570312 -0.992188 C 3.5625 -0.828125 3.597656 -0.695312 3.679688 -0.59375 C 3.761719 -0.492188 3.867188 -0.441406 3.988281 -0.441406 C 4.183594 -0.441406 4.328125 -0.484375 4.421875 -0.570312 C 4.460938 -0.609375 4.492188 -0.628906 4.515625 -0.628906 C 4.554688 -0.628906 4.585938 -0.617188 4.609375 -0.59375 C 4.632812 -0.570312 4.644531 -0.539062 4.644531 -0.5 C 4.644531 -0.414062 4.601562 -0.332031 4.515625 -0.246094 C 4.390625 -0.121094 4.257812 -0.0195312 4.113281 0.0507812 C 3.96875 0.125 3.835938 0.164062 3.710938 0.164062 C 3.351562 0.164062 3.070312 -0.0390625 2.859375 -0.441406 L 2.824219 -0.441406 C 2.566406 -0.234375 2.320312 -0.078125 2.089844 0.015625 C 1.855469 0.113281 1.613281 0.164062 1.363281 0.164062 Z M 1.914062 -0.398438 C 2.070312 -0.398438 2.203125 -0.421875 2.308594 -0.472656 C 2.417969 -0.523438 2.515625 -0.589844 2.601562 -0.675781 C 2.640625 -0.714844 2.671875 -0.769531 2.699219 -0.835938 C 2.726562 -0.902344 2.746094 -1.007812 2.753906 -1.15625 L 2.777344 -1.726562 C 2.785156 -1.8125 2.78125 -1.875 2.765625 -1.914062 C 2.75 -1.953125 2.71875 -1.972656 2.671875 -1.972656 C 2.65625 -1.972656 2.628906 -1.96875 2.589844 -1.960938 C 2.550781 -1.953125 2.5 -1.9375 2.4375 -1.914062 C 2.027344 -1.765625 1.742188 -1.613281 1.582031 -1.453125 C 1.421875 -1.292969 1.339844 -1.148438 1.339844 -1.015625 C 1.339844 -0.8125 1.402344 -0.660156 1.523438 -0.554688 C 1.644531 -0.449219 1.773438 -0.398438 1.914062 -0.398438 Z "/>
</g>
<g id="glyph-0-5">
<path d="M 0.570312 0.0351562 C 0.492188 0.0351562 0.4375 0.0234375 0.398438 0.00390625 C 0.359375 -0.015625 0.339844 -0.046875 0.339844 -0.09375 C 0.339844 -0.15625 0.363281 -0.195312 0.410156 -0.214844 C 0.457031 -0.234375 0.519531 -0.257812 0.605469 -0.28125 C 0.753906 -0.320312 0.867188 -0.375 0.9375 -0.449219 C 1.011719 -0.523438 1.050781 -0.613281 1.050781 -0.722656 L 1.050781 -3.230469 C 1.050781 -3.441406 1.019531 -3.625 0.957031 -3.78125 C 0.894531 -3.9375 0.765625 -4.03125 0.570312 -4.070312 C 0.539062 -4.078125 0.511719 -4.097656 0.488281 -4.128906 C 0.464844 -4.160156 0.453125 -4.191406 0.453125 -4.222656 C 0.453125 -4.300781 0.488281 -4.347656 0.558594 -4.363281 C 0.761719 -4.425781 0.972656 -4.515625 1.195312 -4.636719 C 1.417969 -4.757812 1.589844 -4.855469 1.714844 -4.933594 C 1.761719 -4.964844 1.796875 -4.988281 1.824219 -5 C 1.851562 -5.011719 1.875 -5.015625 1.890625 -5.015625 C 1.929688 -5.015625 1.949219 -4.988281 1.949219 -4.933594 C 1.949219 -4.910156 1.945312 -4.851562 1.941406 -4.761719 C 1.9375 -4.667969 1.933594 -4.558594 1.929688 -4.433594 C 1.925781 -4.308594 1.921875 -4.183594 1.914062 -4.058594 C 1.914062 -4.042969 1.921875 -4.035156 1.9375 -4.035156 C 2.0625 -4.191406 2.199219 -4.328125 2.351562 -4.445312 C 2.503906 -4.5625 2.65625 -4.65625 2.816406 -4.726562 C 2.976562 -4.796875 3.128906 -4.832031 3.277344 -4.832031 C 3.441406 -4.832031 3.574219 -4.796875 3.679688 -4.726562 C 3.785156 -4.65625 3.839844 -4.566406 3.839844 -4.457031 C 3.839844 -4.378906 3.816406 -4.292969 3.773438 -4.199219 C 3.730469 -4.105469 3.675781 -4.023438 3.605469 -3.957031 C 3.535156 -3.886719 3.460938 -3.851562 3.382812 -3.851562 C 3.335938 -3.851562 3.285156 -3.859375 3.230469 -3.878906 C 3.175781 -3.898438 3.117188 -3.925781 3.058594 -3.957031 C 2.996094 -3.980469 2.933594 -4 2.871094 -4.023438 C 2.808594 -4.046875 2.746094 -4.058594 2.683594 -4.058594 C 2.496094 -4.058594 2.316406 -3.992188 2.140625 -3.863281 C 1.964844 -3.730469 1.878906 -3.46875 1.878906 -3.082031 L 1.878906 -0.722656 C 1.878906 -0.621094 1.933594 -0.539062 2.042969 -0.472656 C 2.152344 -0.40625 2.300781 -0.34375 2.496094 -0.28125 C 2.582031 -0.257812 2.648438 -0.234375 2.695312 -0.210938 C 2.742188 -0.1875 2.765625 -0.148438 2.765625 -0.09375 C 2.765625 -0.0078125 2.6875 0.0351562 2.53125 0.0351562 C 2.296875 0.0351562 2.121094 0.0234375 2 0.00390625 C 1.878906 -0.015625 1.71875 -0.0234375 1.515625 -0.0234375 C 1.382812 -0.0234375 1.277344 -0.0195312 1.195312 -0.0117188 C 1.113281 -0.00390625 1.027344 0.00390625 0.9375 0.015625 C 0.847656 0.0273438 0.726562 0.0351562 0.570312 0.0351562 Z "/>
</g>
<g id="glyph-0-6">
<path d="M 0.746094 3.324219 C 0.597656 3.324219 0.460938 3.289062 0.339844 3.214844 C 0.214844 3.140625 0.152344 3.019531 0.152344 2.847656 C 0.152344 2.707031 0.183594 2.585938 0.25 2.480469 C 0.316406 2.375 0.414062 2.320312 0.535156 2.320312 C 0.621094 2.320312 0.707031 2.332031 0.789062 2.355469 C 0.871094 2.378906 0.941406 2.390625 1.003906 2.390625 C 1.050781 2.390625 1.089844 2.382812 1.125 2.363281 C 1.160156 2.34375 1.195312 2.308594 1.226562 2.261719 C 1.3125 2.121094 1.410156 1.949219 1.523438 1.738281 C 1.636719 1.527344 1.753906 1.292969 1.871094 1.027344 C 1.992188 0.761719 2.109375 0.480469 2.214844 0.1875 C 2.238281 0.117188 2.25 0.0273438 2.25 -0.0820312 C 2.25 -0.144531 2.246094 -0.203125 2.238281 -0.261719 C 2.230469 -0.320312 2.21875 -0.375 2.203125 -0.421875 L 0.851562 -3.839844 C 0.796875 -3.980469 0.726562 -4.101562 0.636719 -4.207031 C 0.546875 -4.3125 0.441406 -4.378906 0.328125 -4.410156 C 0.265625 -4.433594 0.203125 -4.460938 0.144531 -4.492188 C 0.0859375 -4.523438 0.0585938 -4.566406 0.0585938 -4.621094 C 0.0585938 -4.667969 0.0859375 -4.695312 0.144531 -4.707031 C 0.203125 -4.71875 0.253906 -4.726562 0.292969 -4.726562 C 0.449219 -4.726562 0.5625 -4.722656 0.636719 -4.714844 C 0.710938 -4.707031 0.78125 -4.695312 0.847656 -4.683594 C 0.914062 -4.671875 1.011719 -4.667969 1.144531 -4.667969 C 1.285156 -4.667969 1.386719 -4.671875 1.457031 -4.683594 C 1.527344 -4.695312 1.601562 -4.707031 1.679688 -4.714844 C 1.757812 -4.722656 1.875 -4.726562 2.03125 -4.726562 C 2.078125 -4.726562 2.128906 -4.714844 2.183594 -4.695312 C 2.238281 -4.675781 2.261719 -4.644531 2.261719 -4.597656 C 2.261719 -4.542969 2.222656 -4.488281 2.140625 -4.4375 C 2.058594 -4.386719 1.988281 -4.355469 1.925781 -4.339844 C 1.847656 -4.316406 1.789062 -4.277344 1.75 -4.21875 C 1.710938 -4.160156 1.691406 -4.074219 1.691406 -3.964844 C 1.691406 -3.917969 1.703125 -3.863281 1.726562 -3.796875 C 1.75 -3.730469 1.769531 -3.679688 1.785156 -3.640625 L 2.730469 -1.308594 C 2.746094 -1.261719 2.769531 -1.238281 2.800781 -1.238281 C 2.824219 -1.238281 2.84375 -1.261719 2.859375 -1.308594 L 3.664062 -3.441406 C 3.6875 -3.496094 3.707031 -3.566406 3.726562 -3.65625 C 3.746094 -3.746094 3.757812 -3.820312 3.757812 -3.875 C 3.757812 -4.023438 3.734375 -4.125 3.691406 -4.183594 C 3.648438 -4.242188 3.59375 -4.285156 3.523438 -4.316406 C 3.460938 -4.347656 3.390625 -4.390625 3.308594 -4.4375 C 3.226562 -4.488281 3.183594 -4.542969 3.183594 -4.597656 C 3.183594 -4.644531 3.214844 -4.675781 3.273438 -4.695312 C 3.332031 -4.714844 3.378906 -4.726562 3.417969 -4.726562 C 3.527344 -4.726562 3.636719 -4.714844 3.75 -4.695312 C 3.863281 -4.675781 4.027344 -4.667969 4.246094 -4.667969 C 4.394531 -4.667969 4.5 -4.671875 4.566406 -4.683594 C 4.632812 -4.695312 4.691406 -4.707031 4.738281 -4.714844 C 4.785156 -4.722656 4.847656 -4.726562 4.933594 -4.726562 C 4.972656 -4.726562 5.023438 -4.71875 5.082031 -4.707031 C 5.140625 -4.695312 5.167969 -4.667969 5.167969 -4.621094 C 5.167969 -4.566406 5.140625 -4.523438 5.082031 -4.492188 C 5.023438 -4.460938 4.960938 -4.433594 4.898438 -4.410156 C 4.78125 -4.378906 4.660156 -4.289062 4.527344 -4.136719 C 4.394531 -3.984375 4.289062 -3.816406 4.210938 -3.628906 L 2.625 0.152344 C 2.617188 0.175781 2.578125 0.277344 2.503906 0.453125 C 2.429688 0.632812 2.335938 0.855469 2.226562 1.121094 C 2.117188 1.386719 2 1.667969 1.871094 1.972656 C 1.742188 2.273438 1.621094 2.566406 1.503906 2.847656 C 1.433594 3.003906 1.332031 3.121094 1.203125 3.203125 C 1.070312 3.285156 0.917969 3.324219 0.746094 3.324219 Z "/>
</g>
</g>
</defs>
<g fill="rgb(23.921569%, 22.352941%, 16.078431%)" fill-opacity="1">
<use xlink:href="#glyph-0-0" x="30" y="31.749023"/>
<use xlink:href="#glyph-0-1" x="36" y="31.749023"/>
<use xlink:href="#glyph-0-2" x="40" y="31.749023"/>
<use xlink:href="#glyph-0-1" x="45" y="31.749023"/>
<use xlink:href="#glyph-0-3" x="50" y="31.749023"/>
<use xlink:href="#glyph-0-3" x="54" y="31.749023"/>
<use xlink:href="#glyph-0-4" x="58" y="31.749023"/>
<use xlink:href="#glyph-0-5" x="63" y="31.749023"/>
<use xlink:href="#glyph-0-6" x="67" y="31.749023"/>
</g>
</svg>
